<?xml version="1.0" encoding="utf-8"?>
<!-- Generator: Adobe Illustrator 21.0.0, SVG Export Plug-In . SVG Version: 6.00 Build 0)  -->
<svg version="1.1" id="icon_1_" xmlns="http://www.w3.org/2000/svg" xmlns:xlink="http://www.w3.org/1999/xlink" x="0px" y="0px"
	 viewBox="0 0 24 24" style="enable-background:new 0 0 24 24;" xml:space="preserve">
<style type="text/css">
	.st0{fill:#CED2D6;}
</style>
<path class="st0" d="M13,9.8h-2v2h2V9.8z M18.5,17.2h-2v2h2V17.2z M13,13.5h-2v2h2V13.5z M18.5,9.8h-2v2h2V9.8z M18.5,13.5h-2v2h2
	V13.5z M21.6,3.7h-3.5V2.5c0-0.3-0.2-0.5-0.5-0.5s-0.5,0.2-0.5,0.5v1.2H6.9V2.5C6.9,2.2,6.7,2,6.4,2S5.9,2.2,5.9,2.5v1.2H2.4
	c-0.3,0-0.5,0.2-0.5,0.5v17.3c0,0.3,0.2,0.5,0.5,0.5h19.1c0.3,0,0.5-0.2,0.5-0.5V4.2C22.1,3.9,21.8,3.7,21.6,3.7z M21.1,21H2.9V7.8
	h18.1V21z M21.1,6.8H2.9V4.7h3v0.9c0,0.3,0.2,0.5,0.5,0.5s0.5-0.2,0.5-0.5V4.7h10.1v0.9c0,0.3,0.2,0.5,0.5,0.5s0.5-0.2,0.5-0.5V4.7
	h3V6.8z M13,17.2h-2v2h2V17.2z M7.5,17.2h-2v2h2V17.2z M7.5,13.5h-2v2h2V13.5z M7.5,9.8h-2v2h2V9.8z"/>
</svg>
