<?xml version="1.0" encoding="UTF-8" standalone="no"?>
<!-- Generator: Adobe Illustrator 21.0.0, SVG Export Plug-In . SVG Version: 6.00 Build 0)  -->

<svg
   xmlns:dc="http://purl.org/dc/elements/1.1/"
   xmlns:cc="http://creativecommons.org/ns#"
   xmlns:rdf="http://www.w3.org/1999/02/22-rdf-syntax-ns#"
   xmlns:svg="http://www.w3.org/2000/svg"
   xmlns="http://www.w3.org/2000/svg"
   xmlns:sodipodi="http://sodipodi.sourceforge.net/DTD/sodipodi-0.dtd"
   xmlns:inkscape="http://www.inkscape.org/namespaces/inkscape"
   version="1.1"
   id="icon_1_"
   x="0px"
   y="0px"
   viewBox="0 0 24 24"
   style="enable-background:new 0 0 24 24;"
   xml:space="preserve"
   inkscape:version="0.91 r13725"
   sodipodi:docname="help.svg"><metadata
     id="metadata11"><rdf:RDF><cc:Work
         rdf:about=""><dc:format>image/svg+xml</dc:format><dc:type
           rdf:resource="http://purl.org/dc/dcmitype/StillImage" /><dc:title></dc:title></cc:Work></rdf:RDF></metadata><defs
     id="defs9" /><sodipodi:namedview
     pagecolor="#ffffff"
     bordercolor="#666666"
     borderopacity="1"
     objecttolerance="10"
     gridtolerance="10"
     guidetolerance="10"
     inkscape:pageopacity="0"
     inkscape:pageshadow="2"
     inkscape:window-width="1855"
     inkscape:window-height="1056"
     id="namedview7"
     showgrid="false"
     inkscape:zoom="39.333333"
     inkscape:cx="7.1926792"
     inkscape:cy="11.346476"
     inkscape:window-x="65"
     inkscape:window-y="24"
     inkscape:window-maximized="1"
     inkscape:current-layer="g4842" /><g
     transform="translate(-358.69335,-147.8572)"
     id="g4842"><path
       sodipodi:nodetypes="ssssssssss"
       inkscape:connector-curvature="0"
       d="m 370.99759,149.6555 c -5.6,0 -10.2,4.5 -10.2,10.1 0,5.6 4.6,10.1 10.2,10.1 5.5,0 10.1,-4.5 10.1,-10.1 0,-5.6 -4.5,-10.1 -10.1,-10.1 z m 0,19.2 c -5,0 -9.1,-4.1 -9.1,-9.1 0,-5 4.1,-9.1 9.1,-9.1 5,0 9.1,4.1 9.1,9.1 0,5 -4.1,9.1 -9.1,9.1 z"
       id="path4137" /><g
       id="text4151"
       style="font-style:normal;font-weight:normal;font-size:16.93697739px;line-height:125%;font-family:sans-serif;letter-spacing:0px;word-spacing:0px;fill:#000000;fill-opacity:1;stroke:none;stroke-width:1px;stroke-linecap:butt;stroke-linejoin:miter;stroke-opacity:1"
       transform="matrix(1.0305388,0,0,0.97036618,358.69759,147.8555)" /><path
       sodipodi:nodetypes="ccsccscscscccssccscccsscsccssssc"
       inkscape:connector-curvature="0"
       id="path4216"
       style="font-style:normal;font-variant:normal;font-weight:normal;font-stretch:normal;font-size:16.93697739px;line-height:125%;font-family:NanumBarunGothic;-inkscape-font-specification:NanumBarunGothic;letter-spacing:0px;word-spacing:0px;fill:#000000;fill-opacity:1;stroke:none;stroke-width:1px;stroke-linecap:butt;stroke-linejoin:miter;stroke-opacity:1"
       d="m 367.41075,155.55636 c -0.0658,0.0584 -0.12504,0.0818 -0.17769,0.0701 -0.0395,-0.0234 -0.0592,-0.0818 -0.0592,-0.17526 l 0,-1.40207 c 0.55282,-0.30378 1.11222,-0.5433 1.67821,-0.71856 0.56598,-0.18694 1.16487,-0.28041 1.79666,-0.28041 0.6318,0 1.20436,0.0701 1.71769,0.21031 0.5265,0.12852 0.97402,0.32131 1.34257,0.57835 0.36854,0.25705 0.65154,0.57251 0.84897,0.9464 0.2106,0.3622 0.3159,0.77697 0.3159,1.24433 0,0.33883 -0.0658,0.67182 -0.19744,0.99897 -0.13162,0.31547 -0.30273,0.61925 -0.51333,0.91134 -0.19743,0.2921 -0.4212,0.56667 -0.67128,0.82372 -0.25009,0.24536 -0.49359,0.47319 -0.73051,0.6835 l -0.59231,0.52578 c -0.17111,0.15189 -0.32248,0.31546 -0.4541,0.49072 -0.11846,0.17526 -0.21718,0.36804 -0.29616,0.57835 -0.0658,0.19863 -0.0987,0.43231 -0.0987,0.70104 0,0.24536 0.0132,0.47904 0.0395,0.70103 0.0395,0.21031 0.0856,0.42646 0.1382,0.64845 l -1.55974,0 c -0.11846,-0.4323 -0.17769,-0.89381 -0.17769,-1.38453 0,-0.61925 0.14478,-1.14503 0.43435,-1.57733 0.28958,-0.4323 0.67129,-0.86461 1.14513,-1.29691 0.22376,-0.18694 0.44094,-0.37388 0.65154,-0.56083 0.22376,-0.19862 0.41462,-0.40309 0.57257,-0.6134 0.17111,-0.22199 0.30931,-0.44983 0.41461,-0.68351 0.1053,-0.24536 0.15795,-0.5024 0.15795,-0.77113 0,-0.63093 -0.2435,-1.09829 -0.73051,-1.40207 -0.48701,-0.30378 -1.13855,-0.45567 -1.95462,-0.45567 -0.60547,0 -1.15171,0.10516 -1.63872,0.31547 -0.487,0.21031 -0.95427,0.50824 -1.40178,0.89381 z" /><path
       inkscape:connector-curvature="0"
       d="m 370.96901,163.71147 a 1.3611019,1.0388285 84.115506 0 1 1.07174,1.39496 1.3611019,1.0388285 84.115506 0 1 -1.0129,1.32024 1.3611019,1.0388285 84.115506 0 1 -1.07173,-1.39496 1.3611019,1.0388285 84.115506 0 1 1.01289,-1.32024 z"
       id="ellipse4139" /></g></svg>