<?xml version="1.0" encoding="utf-8"?>
<!-- Generator: Adobe Illustrator 21.0.0, SVG Export Plug-In . SVG Version: 6.00 Build 0)  -->
<svg version="1.1" id="icon_1_" xmlns="http://www.w3.org/2000/svg" xmlns:xlink="http://www.w3.org/1999/xlink" x="0px" y="0px"
	 viewBox="0 0 24 24" style="enable-background:new 0 0 24 24;" xml:space="preserve">
<path d="M20.3,15.8c-0.2,0-0.4,0.1-0.6,0.2l-0.9-1.3c0.3-0.9,0.5-1.8,0.5-2.8s-0.2-1.9-0.5-2.8L19.8,8c0.2,0.1,0.4,0.2,0.6,0.2
	c0.6,0,1-0.4,1-1c0-0.6-0.4-1-1-1s-1,0.4-1,1c0,0,0,0.1,0,0.1l-1.6,0.2C16.7,6,15,5,13,4.7l-0.6-1.4C12.8,3.1,13,2.8,13,2.4
	c0-0.6-0.4-1-1-1s-1,0.4-1,1c0,0.4,0.2,0.8,0.6,0.9L11,4.7C9,5,7.3,6,6.2,7.5L4.6,7.3c0,0,0-0.1,0-0.1c0-0.6-0.4-1-1-1s-1,0.4-1,1
	c0,0.6,0.4,1,1,1c0.2,0,0.4-0.1,0.6-0.2l0.9,1.3C4.8,10.1,4.6,11,4.6,12s0.2,1.9,0.5,2.8L4.2,16c-0.2-0.1-0.4-0.2-0.6-0.2
	c-0.6,0-1,0.4-1,1c0,0.6,0.4,1,1,1s1-0.4,1-1c0,0,0-0.1,0-0.1l1.6-0.2C7.3,18,9,19,11,19.3l0.6,1.4c-0.4,0.2-0.6,0.5-0.6,0.9
	c0,0.6,0.4,1,1,1s1-0.4,1-1c0-0.4-0.2-0.8-0.6-0.9l0.6-1.4c1.9-0.3,3.6-1.3,4.8-2.8l1.6,0.2c0,0,0,0.1,0,0.1c0,0.6,0.4,1,1,1
	s1-0.4,1-1C21.3,16.3,20.9,15.8,20.3,15.8z M5.9,13.8c-0.2-0.6-0.3-1.2-0.3-1.8c0-0.6,0.1-1.2,0.3-1.8L7.2,12L5.9,13.8z M7.4,16.4
	l2.2-0.2l0.9,2C9.3,17.9,8.2,17.3,7.4,16.4z M9.6,7.8L7.4,7.6c0.8-0.9,1.9-1.5,3.1-1.8L9.6,7.8z M16.6,7.6l-2.2,0.2l-0.9-2
	C14.7,6.1,15.8,6.7,16.6,7.6z M13.5,18.2l0.9-2l2.2,0.2C15.8,17.3,14.7,17.9,13.5,18.2z M18.1,13.8L16.8,12l1.3-1.8
	c0.2,0.6,0.3,1.2,0.3,1.8S18.3,13.2,18.1,13.8z"/>
</svg>
