<?xml version="1.0" encoding="utf-8"?>
<!-- Generator: Adobe Illustrator 21.0.0, SVG Export Plug-In . SVG Version: 6.00 Build 0)  -->
<svg version="1.1" id="icon_1_" xmlns="http://www.w3.org/2000/svg" xmlns:xlink="http://www.w3.org/1999/xlink" x="0px" y="0px"
	 viewBox="0 0 24 24" style="enable-background:new 0 0 24 24;" xml:space="preserve">
<g>
	<g>
		<path d="M22.4,11.2c0.1,0,0.3,0.1,0.3,0.3v11.7c0,0.1-0.1,0.3-0.3,0.3h-5.5c-0.1,0-0.3-0.1-0.3-0.3V11.5c0-0.1,0.1-0.3,0.3-0.3
			H22.4z"/>
	</g>
	<g>
		<path d="M8.9,15.2c0-0.1,0.1-0.3,0.3-0.3h5.5c0.1,0,0.3,0.1,0.3,0.3v8c0,0.1-0.1,0.3-0.3,0.3H9.2c-0.1,0-0.3-0.1-0.3-0.3V15.2z"/>
	</g>
	<g>
		<path d="M16.3,8.4c0.1,0.1,0.1,0.3,0,0.4l-4.5,4.4c-0.1,0.1-0.3,0.1-0.4,0l-2.4-2.3c-0.1-0.1-0.3-0.1-0.4,0l-5.2,5.2
			c-0.1,0.1-0.3,0.1-0.3,0l-1.4-1.5c-0.1-0.1-0.1-0.3,0-0.4l7-7.1c0.1-0.1,0.3-0.1,0.4,0l2.3,2.2c0.1,0.1,0.3,0.1,0.4,0l2.6-2.5
			c0.1-0.1,0.3-0.1,0.4,0L16.3,8.4z"/>
	</g>
	<g>
		<path d="M1.2,18c0-0.1,0.1-0.3,0.3-0.3h5.4c0.1,0,0.3,0.1,0.3,0.3v5.3c0,0.1-0.1,0.3-0.3,0.3H1.5c-0.1,0-0.3-0.1-0.3-0.3V18z"/>
	</g>
	<g>
		<path d="M22.5,0.6c0.1,0,0.2,0.1,0.2,0.2L21.9,5c0,0.1-0.1,0.2-0.2,0.1l-3.5-3.5c-0.1-0.1-0.1-0.2,0.1-0.2L22.5,0.6z"/>
	</g>
</g>
<g>
	<path d="M17.2,7.9c-0.1,0.1-0.3,0.1-0.4,0l-1.5-1.6c-0.1-0.1-0.1-0.3,0-0.4l1-1c0.1-0.1,0.3-0.1,0.4,0l1.5,1.6
		c0.1,0.1,0.1,0.3,0,0.4L17.2,7.9z"/>
</g>
<g>
	<path d="M19,6.1c-0.1,0.1-0.3,0.1-0.4,0l-1.5-1.6c-0.1-0.1-0.1-0.3,0-0.4l0.6-0.6c0.1-0.1,0.3-0.1,0.4,0l1.5,1.6
		c0.1,0.1,0.1,0.3,0,0.4L19,6.1z"/>
</g>
</svg>
