<?xml version="1.0" encoding="utf-8"?>
<!-- Generator: Adobe Illustrator 21.0.0, SVG Export Plug-In . SVG Version: 6.00 Build 0)  -->
<svg version="1.1" id="Calque_3" xmlns="http://www.w3.org/2000/svg" xmlns:xlink="http://www.w3.org/1999/xlink" x="0px" y="0px"
	 viewBox="0 0 24 24" style="enable-background:new 0 0 24 24;" xml:space="preserve">
<g>
	<path d="M10.7,23c-0.4,0-0.9-0.2-1.2-0.5l-8-8C1.2,14.2,1,13.8,1,13.3c0-0.4,0.2-0.9,0.5-1.2L12.1,1.5c0.5-0.5,1.5-0.9,2.2-0.9h7.4
		c0.9,0,1.7,0.8,1.7,1.7v7.4c0,0.7-0.4,1.7-0.9,2.2L11.9,22.5C11.5,22.8,11.1,23,10.7,23z M14.3,1.9c-0.4,0-1,0.2-1.2,0.5L2.4,13.1
		c-0.1,0.1-0.1,0.2-0.1,0.2s0,0.1,0.1,0.2l8,8c0.1,0.1,0.3,0.1,0.5,0l10.7-10.7c0.3-0.3,0.5-0.9,0.5-1.2V2.3c0-0.2-0.2-0.3-0.3-0.3
		H14.3z M17.7,8.6c-1.3,0-2.3-1.1-2.3-2.3s1.1-2.3,2.3-2.3s2.3,1.1,2.3,2.3S19,8.6,17.7,8.6z M17.7,5.3c-0.6,0-1,0.4-1,1s0.4,1,1,1
		s1-0.4,1-1S18.3,5.3,17.7,5.3z"/>
</g>
</svg>
