<?xml version="1.0" encoding="utf-8"?>
<!-- Generator: Adobe Illustrator 21.0.0, SVG Export Plug-In . SVG Version: 6.00 Build 0)  -->
<svg version="1.1" id="icon" xmlns="http://www.w3.org/2000/svg" xmlns:xlink="http://www.w3.org/1999/xlink" x="0px" y="0px"
	 viewBox="0 0 24 24" style="enable-background:new 0 0 24 24;" xml:space="preserve">
<path d="M21,0H3C1.4,0,0,1.4,0,3v18c0,1.6,1.4,3,3,3h10.1c0-0.3,0-0.5,0-0.8c0-3.2,0-6.4,0-9.6v-0.3h-2.7c0-0.1,0-0.1,0-0.2
	c0-1.1,0-2.2,0-3.4c0-0.2,0-0.2,0.2-0.2c0.8,0,1.5,0,2.3,0c0.2,0,0.2-0.1,0.2-0.2c0-1,0-2,0-3c0-0.7,0.2-1.4,0.5-2.1
	c0.4-0.7,1-1.2,1.7-1.5c0.4-0.1,0.9-0.2,1.3-0.3c0.1,0,0.1,0,0.2,0h3.6c0,0.1,0,0.1,0,0.2c0,1.1,0,2.2,0,3.3c0,0.2,0,0.2-0.2,0.2
	c-0.6,0-1.2,0-1.8,0c-0.2,0-0.4,0-0.6,0.1c-0.4,0.1-0.7,0.4-0.7,0.8c0,0.8,0,1.6,0,2.4c0,0.1,0.1,0.1,0.2,0.1c1,0,2,0,3,0
	c0.1,0,0.1,0,0.2,0c-0.1,1.3-0.3,2.5-0.4,3.7h-3v0.2c0,3.5,0,7,0,10.4H21c1.6,0,3-1.4,3-3V3C24,1.4,22.6,0,21,0z"/>
</svg>
