<?xml version="1.0" encoding="utf-8"?>
<!-- Generator: Adobe Illustrator 21.0.0, SVG Export Plug-In . SVG Version: 6.00 Build 0)  -->
<svg version="1.1"
	 id="icon_1_" inkscape:version="0.91 r13725" sodipodi:docname="help.svg" xmlns:cc="http://creativecommons.org/ns#" xmlns:dc="http://purl.org/dc/elements/1.1/" xmlns:inkscape="http://www.inkscape.org/namespaces/inkscape" xmlns:rdf="http://www.w3.org/1999/02/22-rdf-syntax-ns#" xmlns:sodipodi="http://sodipodi.sourceforge.net/DTD/sodipodi-0.dtd" xmlns:svg="http://www.w3.org/2000/svg"
	 xmlns="http://www.w3.org/2000/svg" xmlns:xlink="http://www.w3.org/1999/xlink" x="0px" y="0px" viewBox="0 0 24 24"
	 style="enable-background:new 0 0 24 24;" xml:space="preserve">
<sodipodi:namedview  bordercolor="#666666" borderopacity="1" gridtolerance="10" guidetolerance="10" id="namedview7" inkscape:current-layer="g4842" inkscape:cx="7.1926792" inkscape:cy="11.346476" inkscape:pageopacity="0" inkscape:pageshadow="2" inkscape:window-height="1056" inkscape:window-maximized="1" inkscape:window-width="1855" inkscape:window-x="65" inkscape:window-y="24" inkscape:zoom="39.333333" objecttolerance="10" pagecolor="#ffffff" showgrid="false">
	</sodipodi:namedview>
<path d="M12.1,0.3C5.6,0.3,0.2,5.5,0.2,12c0,6.5,5.3,11.7,11.8,11.7c6.4,0,11.7-5.2,11.7-11.7C23.8,5.5,18.6,0.3,12.1,0.3z
	 M12.1,22.6C6.3,22.6,1.5,17.8,1.5,12S6.3,1.4,12.1,1.4S22.6,6.2,22.6,12S17.9,22.6,12.1,22.6z M11.8,16.7c-1,0-1.6,0.5-1.6,1.6
	c0,0.5,0.1,0.9,0.4,1.2c0.3,0.3,0.7,0.4,1.2,0.4c0.5,0,0.9-0.1,1.2-0.4c0.3-0.3,0.4-0.7,0.4-1.2c0-0.5-0.1-0.9-0.4-1.2
	C12.7,16.9,12.3,16.7,11.8,16.7z M12.8,15.2c0-0.6,0.1-0.9,0.3-1.2c0.2-0.3,0.7-0.8,1.3-1.3c0.8-0.6,1.3-1.1,1.6-1.5
	c0.3-0.4,0.6-0.8,0.7-1.2C17,9.6,17,9.1,17,8.6c0-1.2-0.4-2.1-1.2-2.8c-0.8-0.7-1.9-1-3.3-1c-1.6,0-3.2,0.4-4.6,1.2l0.9,1.9
	c0.5-0.3,1.1-0.5,1.7-0.7c0.6-0.2,1.2-0.3,1.9-0.3c0.7,0,1.3,0.2,1.7,0.5c0.4,0.3,0.6,0.8,0.6,1.4c0,0.5-0.1,1-0.4,1.3
	c-0.2,0.4-0.8,0.9-1.6,1.6c-0.7,0.6-1.2,1.1-1.5,1.6c-0.3,0.5-0.4,1.2-0.4,2"/>
</svg>
