<?xml version="1.0" encoding="utf-8"?>
<!-- Generator: Adobe Illustrator 21.0.0, SVG Export Plug-In . SVG Version: 6.00 Build 0)  -->
<svg version="1.1" id="Calque_3" xmlns="http://www.w3.org/2000/svg" xmlns:xlink="http://www.w3.org/1999/xlink" x="0px" y="0px"
	 viewBox="0 0 24 24" style="enable-background:new 0 0 24 24;" xml:space="preserve">
<g>
	<path d="M21.7,1.4c0.5,0,0.9,0.4,0.9,0.9v7.4c0,0.5-0.3,1.3-0.7,1.7L11.4,21.9c-0.3,0.2-0.5,0.3-0.7,0.3c-0.2,0-0.5-0.1-0.7-0.3
		l-8-8c-0.2-0.2-0.3-0.4-0.3-0.7c0-0.2,0.1-0.5,0.3-0.7L12.6,2c0.3-0.3,1.1-0.7,1.7-0.7H21.7 M17.7,8.9c1.4,0,2.6-1.2,2.6-2.6
		s-1.2-2.6-2.6-2.6s-2.6,1.2-2.6,2.6S16.3,8.9,17.7,8.9 M21.7,0.6h-7.4c-0.7,0-1.7,0.4-2.2,0.9L1.5,12.1C1.2,12.4,1,12.9,1,13.3
		c0,0.5,0.2,0.9,0.5,1.2l8,8c0.3,0.3,0.8,0.5,1.2,0.5c0.4,0,0.8-0.2,1.2-0.5l10.6-10.6c0.5-0.5,0.9-1.5,0.9-2.2V2.3
		C23.4,1.4,22.6,0.6,21.7,0.6L21.7,0.6z M17.7,8.1c-1,0-1.8-0.8-1.8-1.8s0.8-1.8,1.8-1.8s1.8,0.8,1.8,1.8S18.7,8.1,17.7,8.1
		L17.7,8.1z"/>
</g>
</svg>
