<?xml version="1.0" encoding="utf-8"?>
<!-- Generator: Adobe Illustrator 21.0.0, SVG Export Plug-In . SVG Version: 6.00 Build 0)  -->
<svg version="1.1" id="Calque_1" xmlns="http://www.w3.org/2000/svg" xmlns:xlink="http://www.w3.org/1999/xlink" x="0px" y="0px"
	 viewBox="0 0 243 192.3" style="enable-background:new 0 0 243 192.3;" xml:space="preserve">
<path d="M74.2,163.3c0,0.2,0.1,0.5,0.3,0.7c0.2,0.2,0.5,0.3,0.7,0.4c0.6,0,1.1-0.3,1.3-0.9c0.1-0.3,0-0.5,0-0.6
	c0-0.2-0.1-0.3-0.1-0.5c-0.1-0.4-0.1-0.7-0.1-1c0-0.4-0.3-0.9-0.8-1c-0.3,0-0.5,0-0.8,0.2c-0.2,0.2-0.3,0.4-0.4,0.7
	c0,0.3,0.1,0.4,0.1,0.6c0.1,0.2,0.1,0.3,0.1,0.5c0,0.2,0,0.3-0.1,0.5C74.4,162.9,74.2,163,74.2,163.3z M87.5,145.4
	c-3.1-2.9-7.2-4.5-11.4-4.5c-4.1-0.1-8.3,1.5-11.4,4.4c-3.1,2.9-4.9,7.1-4.9,11.4c0,2.1,0.4,4.3,1.2,6.2c0.8,2,2.1,3.8,3.6,5.3
	c3,3,7.3,4.7,11.5,4.6c4.2,0,8.3-1.8,11.3-4.8c1.5-1.5,2.7-3.2,3.6-5.1c0.9-1.9,1.3-4,1.4-6.1C92.4,152.5,90.6,148.2,87.5,145.4z
	 M89.1,162.1c-0.7,1.6-1.8,3.1-3.1,4.3c0.4-0.5,0.6-1.2,0.5-1.9c-0.1-0.7-0.4-1.3-0.8-1.8c-0.4-0.5-1.1-0.9-1.8-1
	c-0.7-0.1-1.5,0.3-1.9,0.9c-0.4,0.6-0.5,1.3-0.5,1.9c0,0.6,0.1,1.3,0.5,1.9c0.4,0.6,1.2,1,1.9,1c0.5,0,1-0.1,1.4-0.4
	c-2.6,2.2-5.9,3.4-9.2,3.4c-3.6,0-7.1-1.5-9.7-4c-2.4-2.4-3.9-5.7-4.2-9.1c0.3,1.3,1.6,2.3,2.9,2.1c0.7-0.1,1.3-0.4,1.8-0.9
	c0.5-0.4,0.9-1,1-1.8c0.1-0.7-0.3-1.5-0.9-1.9c-0.6-0.4-1.3-0.5-1.9-0.5c-0.6,0-1.3,0.1-1.9,0.5c-0.6,0.4-0.9,1.1-1,1.8
	c-0.1-3.6,1.4-7.3,4-9.9c2.6-2.6,6.3-4,9.9-3.9c3.6,0,7.2,1.5,9.8,4c2.7,2.5,4.4,6.1,4.3,9.8C90.2,158.6,89.8,160.4,89.1,162.1z
	 M84.6,164.5c0,0.2-0.2,0.4-0.4,0.3c-0.2,0-0.2-0.1-0.3-0.1c-0.2,0-0.3,0-0.5-0.2c-0.1-0.1-0.1-0.3,0.1-0.4c0.1-0.1,0.4,0,0.4,0.1
	c0.1,0.1,0.2,0,0.3,0C84.4,164.2,84.6,164.3,84.6,164.5z M64.6,156.3c0.1-0.1,0.4,0,0.4,0.1c0.1,0.1,0.1,0,0.3,0
	c0.2,0,0.4,0.1,0.4,0.3c0,0.2-0.2,0.4-0.4,0.3c-0.2,0-0.3,0-0.3-0.1c-0.1,0-0.3,0-0.5-0.2C64.4,156.6,64.4,156.4,64.6,156.3z
	 M80.7,157.8c0.3,0,0.5-0.1,0.7-0.3c0.1-0.2,0.3-0.3,0.4-0.4c0.3-0.3,0.7-0.4,1-0.7c0.2-0.1,0.3-0.3,0.4-0.4
	c0.2-0.1,0.4-0.5,0.3-0.8c0-0.3-0.3-0.6-0.5-0.7c-0.2-0.1-0.4-0.1-0.6-0.2c-0.3,0-0.4-0.1-0.7,0.1c-0.2,0.1-0.4,0.2-0.5,0.3
	c-0.3,0.2-0.6,0.5-0.9,0.7c-0.1,0.1-0.3,0.3-0.4,0.4c0,0-0.2,0.2-0.2,0.4c-0.1,0.2-0.1,0.3-0.1,0.5
	C79.6,157.4,80.2,157.8,80.7,157.8z M76.1,165.1c-0.7,0.1-1.3,0.4-1.8,0.9c-0.5,0.4-0.9,1-1,1.8c-0.1,0.7,0.3,1.5,0.9,1.9
	c0.6,0.4,1.3,0.5,1.9,0.5c0.6,0,1.3-0.1,1.9-0.5c0.6-0.4,1-1.2,1-1.9C79,166.2,77.5,164.9,76.1,165.1z M76.4,167.8
	c0,0.1,0,0.3-0.3,0.5c-0.1,0.1-0.3,0.1-0.4-0.1c-0.1-0.1,0-0.4,0.1-0.4c0.1-0.1,0-0.1,0-0.3c0-0.2,0.1-0.4,0.3-0.4
	c0.2,0,0.3,0.2,0.3,0.4C76.4,167.6,76.4,167.7,76.4,167.8z M79.9,149.6c0.1-0.2,0.1-0.4,0.2-0.7c0.1-0.2,0.1-0.4,0-0.7
	c-0.1-0.3-0.3-0.5-0.6-0.6c-0.3-0.1-0.6-0.1-0.9,0.1c-0.3,0.2-0.4,0.3-0.5,0.4c-0.3,0.3-0.5,0.6-0.8,0.9c-0.1,0.2-0.3,0.3-0.4,0.5
	c-0.2,0.2-0.3,0.5-0.3,0.7c0,0.6,0.4,1,0.8,1.1c0.2,0.1,0.5,0.1,0.7,0c0.1,0,0.2-0.1,0.3-0.2c0.1-0.1,0.2-0.1,0.3-0.2
	c0.3-0.2,0.6-0.5,0.8-0.9C79.7,150,79.8,149.8,79.9,149.6z M82.8,159.5c-0.3-0.1-0.5,0-0.6,0c-0.2,0-0.3,0.1-0.5,0.1
	c-0.4,0.1-0.6,0.1-1,0.1c-0.4,0-0.9,0.3-1,0.9c0,0.3,0,0.5,0.2,0.7c0.2,0.2,0.4,0.3,0.7,0.3c0.3,0,0.4-0.1,0.6-0.1
	c0.2-0.1,0.3-0.1,0.5-0.1c0.2,0,0.3,0,0.5,0.1c0.2,0,0.3,0.2,0.6,0.2c0.5,0,1-0.5,1-1C83.8,160.1,83.3,159.6,82.8,159.5z
	 M84.5,156.7c0.1,0.7,0.4,1.3,0.9,1.8c0.4,0.5,1,0.9,1.8,1c0.7,0.1,1.5-0.3,1.9-0.9c0.4-0.6,0.5-1.3,0.5-1.9c0-0.6-0.1-1.3-0.5-1.9
	c-0.4-0.6-1.2-1-1.9-1C85.6,153.8,84.2,155.3,84.5,156.7z M86.8,156.4c0.2,0,0.3,0,0.3,0.1c0.1,0,0.3,0,0.5,0.2
	c0.1,0.1,0.1,0.3-0.1,0.4c-0.1,0.1-0.4,0-0.4-0.1c-0.1-0.1-0.1,0-0.3,0c-0.2,0-0.4-0.1-0.4-0.3C86.4,156.5,86.6,156.4,86.8,156.4z
	 M83.9,146.5c-0.6,0-1.3,0.1-1.9,0.5c-0.6,0.4-1,1.2-1,1.9c-0.1,1.6,1.5,2.9,2.9,2.6c0.7-0.1,1.3-0.4,1.8-0.9c0.5-0.4,0.9-1,1-1.8
	c0.1-0.7-0.3-1.5-0.9-1.9C85.2,146.6,84.5,146.5,83.9,146.5z M84.2,148.9c0,0.1,0,0.3-0.2,0.5c-0.1,0.1-0.3,0.1-0.4-0.1
	c-0.1-0.1,0-0.4,0.1-0.4c0.1-0.1,0.1-0.1,0-0.3c0-0.2,0.1-0.4,0.3-0.4c0.2,0,0.3,0.2,0.3,0.4C84.2,148.8,84.2,148.8,84.2,148.9z
	 M76.1,154.1c-0.7,0.1-1.3,0.4-1.8,0.9c-0.5,0.4-0.9,1-1,1.8c-0.1,0.7,0.3,1.5,0.9,1.9c0.6,0.4,1.3,0.5,1.9,0.5
	c0.6,0,1.3-0.1,1.9-0.5c0.6-0.4,1-1.1,1-1.9C79,155.2,77.5,153.8,76.1,154.1z M76.3,156.7c0,0.1,0,0.3-0.2,0.5
	c-0.1,0.1-0.3,0.1-0.4-0.1c-0.1-0.1,0-0.4,0.1-0.4c0.1-0.1,0.1-0.1,0-0.3c0-0.2,0.1-0.4,0.3-0.4c0.2,0,0.3,0.2,0.3,0.4
	C76.4,156.6,76.4,156.7,76.3,156.7z M70,161.6c0.4,0,0.9-0.4,0.9-0.9c0-0.2,0-0.5-0.2-0.7c-0.2-0.2-0.4-0.3-0.7-0.3
	c-0.3,0-0.4,0.1-0.6,0.2c-0.2,0-0.3,0.1-0.5,0.1c-0.2,0-0.3,0-0.5-0.1c-0.2,0-0.3-0.2-0.6-0.2c-0.2,0-0.5,0.1-0.7,0.3
	c-0.2,0.2-0.3,0.5-0.3,0.8c0,0.4,0.3,0.9,0.7,1.1c-0.5,0.1-0.9,0.4-1.3,0.7c-0.5,0.5-0.7,1.3-0.6,2c0.1,0.7,0.4,1.3,0.8,1.8
	c0.4,0.5,1,0.9,1.8,1c0.7,0.1,1.5-0.3,1.9-0.9c0.4-0.6,0.5-1.3,0.5-1.9c0-0.6-0.1-1.3-0.5-1.9c-0.3-0.5-0.8-0.8-1.3-0.9
	c0,0,0.1,0,0.1,0C69.3,161.6,69.6,161.6,70,161.6z M68.7,165c-0.2,0.1-0.4,0-0.4-0.1c-0.1-0.1-0.2-0.1-0.3,0c-0.2,0-0.4-0.1-0.4-0.3
	c0-0.2,0.2-0.3,0.4-0.3c0.2,0,0.2,0.1,0.3,0.1c0.1,0,0.3,0,0.5,0.3C68.9,164.7,68.9,164.9,68.7,165z M70.2,150.8
	c0.4-0.6,0.5-1.3,0.5-1.9c0-0.6-0.1-1.3-0.5-1.9c-0.4-0.6-1.2-1-1.9-1c-0.7,0-1.5,0.3-2,0.9c-0.5,0.5-0.7,1.3-0.6,2
	c0.1,0.7,0.4,1.3,0.8,1.8c0.4,0.5,1,0.9,1.8,1C69,151.8,69.8,151.4,70.2,150.8z M67.9,149.2c-0.2,0-0.4-0.1-0.4-0.3
	c0-0.2,0.2-0.3,0.4-0.3c0.2,0,0.2,0.1,0.3,0.1c0.1,0,0.3,0,0.5,0.2c0.1,0.1,0.1,0.3-0.1,0.4c-0.1,0.1-0.4,0-0.4-0.1
	C68.2,149.2,68.1,149.2,67.9,149.2z M76.1,148.3c0.7-0.1,1.3-0.4,1.8-0.9c0.5-0.4,0.9-1,1-1.8c0.1-0.7-0.3-1.5-0.9-1.9
	c-0.6-0.4-1.3-0.5-1.9-0.5c-0.6,0-1.3,0.1-1.9,0.5c-0.6,0.4-1,1.2-1,1.9C73.2,147.3,74.7,148.6,76.1,148.3z M75.8,145.7
	c0-0.1,0-0.3,0.3-0.5c0.1-0.1,0.3-0.1,0.4,0.1c0.1,0.1,0,0.4-0.1,0.4c-0.1,0.1,0,0.1,0,0.3c0,0.2-0.1,0.4-0.3,0.4
	c-0.2,0-0.3-0.2-0.3-0.4C75.8,145.8,75.8,145.7,75.8,145.7z M68.5,155.6c0.1,0.2,0.3,0.3,0.4,0.4c0.1,0,0.2,0.2,0.3,0.2
	c0.1,0.1,0.3,0.1,0.5,0.1c0.3,0,0.6-0.2,0.7-0.5c0.1-0.2,0.1-0.4,0.2-0.6l0-0.3c0-0.1,0-0.1,0-0.2c0-0.1-0.1-0.2-0.1-0.2
	c-0.1-0.2-0.2-0.3-0.3-0.5c-0.2-0.3-0.5-0.6-0.7-0.9c-0.1-0.1-0.3-0.3-0.4-0.4l-0.1-0.1c-0.1-0.1-0.2-0.1-0.2-0.2
	c-0.2-0.1-0.3-0.1-0.5-0.1c-0.6,0-1.1,0.6-1.1,1.2c0,0.3,0.1,0.5,0.3,0.7c0.2,0.1,0.3,0.3,0.4,0.4C68.1,154.9,68.3,155.3,68.5,155.6
	z M73.8,151.3c0,0,0,0,0.1,0.1c0,0,0.1,0.1,0.1,0.1c0.2,0.1,0.3,0.1,0.4,0.1c0.1,0,0.3,0,0.4-0.1c0.1,0,0.3-0.2,0.4-0.3
	c0.2-0.2,0.2-0.4,0.2-0.7l0-0.3c0-0.1,0-0.1,0-0.2c0-0.1-0.1-0.2-0.1-0.2c-0.1-0.2-0.2-0.3-0.3-0.5c-0.2-0.3-0.5-0.6-0.7-0.9
	c-0.1-0.1-0.3-0.3-0.4-0.4c-0.1-0.1-0.1-0.1-0.3-0.2c-0.2-0.1-0.4-0.1-0.5-0.1c-0.3,0-0.6,0.1-0.8,0.3c-0.2,0.2-0.3,0.5-0.3,0.8
	c0,0.3,0.1,0.5,0.3,0.7c0.2,0.1,0.3,0.3,0.4,0.4c0.3,0.3,0.4,0.7,0.7,1c0.1,0.2,0.3,0.3,0.4,0.4L73.8,151.3z M60.6,124.8
	c-0.3-0.1-0.5,0-0.6,0c-0.2,0-0.3,0.1-0.5,0.1c-0.4,0.1-0.6,0.1-1,0.1c-0.4,0-0.9,0.3-1,0.9c0,0.3,0,0.5,0.2,0.7
	c0.2,0.2,0.4,0.3,0.7,0.3c0.3,0,0.4-0.1,0.6-0.1c0.2-0.1,0.3-0.1,0.5-0.1c0.2,0,0.3,0,0.5,0.1c0.2,0,0.3,0.2,0.6,0.2
	c0.5,0,1-0.5,1-1C61.6,125.4,61.2,124.8,60.6,124.8z M46.4,120.9c0.1,0.2,0.3,0.3,0.4,0.4c0.1,0,0.2,0.2,0.3,0.2
	c0.1,0.1,0.3,0.1,0.5,0.1c0.3,0,0.6-0.2,0.7-0.5c0.1-0.2,0.1-0.4,0.2-0.6l0-0.3c0-0.1,0-0.1,0-0.2c0-0.1-0.1-0.2-0.1-0.2
	c-0.1-0.2-0.2-0.3-0.3-0.5c-0.2-0.3-0.5-0.6-0.7-0.9c-0.1-0.1-0.3-0.3-0.4-0.4l-0.1-0.1c-0.1-0.1-0.2-0.1-0.2-0.2
	c-0.2-0.1-0.3-0.1-0.5-0.1c-0.6,0-1.1,0.6-1.1,1.2c0,0.3,0.1,0.5,0.3,0.7c0.2,0.1,0.3,0.3,0.4,0.4C46,120.1,46.1,120.5,46.4,120.9z
	 M53.9,113.6c0.7-0.1,1.3-0.4,1.8-0.9c0.5-0.4,0.9-1,1-1.8c0.1-0.7-0.3-1.5-0.9-1.9c-0.6-0.4-1.3-0.5-1.9-0.5
	c-0.6,0-1.3,0.1-1.9,0.5c-0.6,0.4-1,1.2-1,1.9C51,112.5,52.5,113.9,53.9,113.6z M53.7,111c0-0.1,0-0.3,0.3-0.5
	c0.1-0.1,0.3-0.1,0.4,0.1c0.1,0.1,0,0.4-0.1,0.4c-0.1,0.1,0,0.1,0,0.3c0,0.2-0.1,0.4-0.3,0.4c-0.2,0-0.3-0.2-0.3-0.4
	C53.6,111.1,53.6,111,53.7,111z M48,116.1c0.4-0.6,0.5-1.3,0.5-1.9c0-0.6-0.1-1.3-0.5-1.9c-0.4-0.6-1.2-1-1.9-1
	c-0.7,0-1.5,0.3-2,0.9c-0.5,0.5-0.7,1.3-0.6,2c0.1,0.7,0.4,1.3,0.8,1.8c0.4,0.5,1,0.9,1.8,1C46.8,117,47.6,116.7,48,116.1z
	 M45.8,114.5c-0.2,0-0.4-0.1-0.4-0.3c0-0.2,0.2-0.3,0.4-0.3c0.2,0,0.2,0.1,0.3,0.1c0.1,0,0.3,0,0.5,0.2c0.1,0.1,0.1,0.3-0.1,0.4
	c-0.1,0.1-0.4,0-0.4-0.1C46,114.5,46,114.5,45.8,114.5z M58.6,123.1c0.3,0,0.5-0.1,0.7-0.3c0.1-0.2,0.3-0.3,0.4-0.4
	c0.3-0.3,0.7-0.4,1-0.7c0.2-0.1,0.3-0.3,0.4-0.4c0.2-0.1,0.4-0.5,0.3-0.8c0-0.3-0.3-0.6-0.5-0.7c-0.2-0.1-0.4-0.1-0.6-0.2
	c-0.3,0-0.4-0.1-0.7,0.1c-0.2,0.1-0.4,0.2-0.5,0.3c-0.3,0.2-0.6,0.5-0.9,0.7c-0.1,0.1-0.3,0.3-0.4,0.4c0,0-0.2,0.2-0.2,0.4
	c-0.1,0.2-0.1,0.3-0.1,0.5C57.4,122.7,58,123.1,58.6,123.1z M65.3,110.6c-3.1-2.9-7.2-4.5-11.4-4.5c-4.1-0.1-8.3,1.5-11.4,4.4
	c-3.1,2.9-4.9,7.1-4.9,11.4c0,2.1,0.4,4.3,1.2,6.2c0.8,2,2.1,3.8,3.6,5.3c3,3,7.3,4.7,11.5,4.6c4.2,0,8.3-1.8,11.3-4.8
	c1.5-1.5,2.7-3.2,3.6-5.1c0.9-1.9,1.3-4,1.4-6.1C70.2,117.8,68.4,113.5,65.3,110.6z M66.9,127.4c-0.7,1.6-1.8,3.1-3.1,4.3
	c0.4-0.5,0.6-1.2,0.5-1.9c-0.1-0.7-0.4-1.3-0.8-1.8c-0.4-0.5-1.1-0.9-1.8-1c-0.7-0.1-1.5,0.3-1.9,0.9c-0.4,0.6-0.5,1.3-0.5,1.9
	c0,0.6,0.1,1.3,0.5,1.9c0.4,0.6,1.2,1,1.9,1c0.5,0,1-0.1,1.4-0.4c-2.6,2.2-5.9,3.4-9.2,3.4c-3.6,0-7.1-1.5-9.7-4
	c-2.4-2.4-3.9-5.7-4.2-9.1c0.3,1.3,1.6,2.3,2.9,2.1c0.7-0.1,1.3-0.4,1.8-0.9c0.5-0.4,0.9-1,1-1.8c0.1-0.7-0.3-1.5-0.9-1.9
	c-0.6-0.4-1.3-0.5-1.9-0.5c-0.6,0-1.3,0.1-1.9,0.5c-0.6,0.4-0.9,1.1-1,1.8c-0.1-3.6,1.4-7.3,4-9.9c2.6-2.6,6.3-4,9.9-3.9
	c3.6,0,7.2,1.5,9.8,4c2.7,2.5,4.4,6.1,4.3,9.8C68,123.9,67.7,125.7,66.9,127.4z M62.5,129.8c0,0.2-0.2,0.4-0.4,0.3
	c-0.2,0-0.2-0.1-0.3-0.1c-0.2,0-0.3,0-0.5-0.2c-0.1-0.1-0.1-0.3,0.1-0.4c0.1-0.1,0.4,0,0.4,0.1c0.1,0.1,0.2,0,0.3,0
	C62.2,129.4,62.5,129.6,62.5,129.8z M42.4,121.6c0.1-0.1,0.4,0,0.4,0.1c0.1,0.1,0.1,0,0.3,0c0.2,0,0.4,0.1,0.4,0.3
	c0,0.2-0.2,0.4-0.4,0.3c-0.2,0-0.3,0-0.3-0.1c-0.1,0-0.3,0-0.5-0.2C42.3,121.9,42.3,121.7,42.4,121.6z M62.3,122
	c0.1,0.7,0.4,1.3,0.9,1.8c0.4,0.5,1,0.9,1.8,1c0.7,0.1,1.5-0.3,1.9-0.9c0.4-0.6,0.5-1.3,0.5-1.9c0-0.6-0.1-1.3-0.5-1.9
	c-0.4-0.6-1.2-1-1.9-1C63.4,119.1,62.1,120.6,62.3,122z M64.6,121.7c0.2,0,0.2,0,0.3,0.1c0.1,0,0.3,0,0.5,0.2
	c0.1,0.1,0.1,0.3-0.1,0.4c-0.1,0.1-0.4,0-0.4-0.1c-0.1-0.1-0.1,0-0.3,0c-0.2,0-0.4-0.1-0.4-0.3C64.2,121.8,64.5,121.7,64.6,121.7z
	 M53.9,130.4c-0.7,0.1-1.3,0.4-1.8,0.9c-0.5,0.4-0.9,1-1,1.8c-0.1,0.7,0.3,1.5,0.9,1.9c0.6,0.4,1.3,0.5,1.9,0.5
	c0.6,0,1.3-0.1,1.9-0.5c0.6-0.4,1-1.2,1-1.9C56.9,131.5,55.3,130.1,53.9,130.4z M54.2,133.1c0,0.1,0,0.3-0.3,0.5
	c-0.1,0.1-0.3,0.1-0.4-0.1c-0.1-0.1,0-0.4,0.1-0.4c0.1-0.1,0-0.1,0-0.3c0-0.2,0.1-0.4,0.3-0.4c0.2,0,0.3,0.2,0.3,0.4
	C54.2,132.9,54.2,133,54.2,133.1z M57.8,114.9c0.1-0.2,0.1-0.4,0.2-0.7c0.1-0.2,0.1-0.4,0-0.7c-0.1-0.3-0.3-0.5-0.6-0.6
	c-0.3-0.1-0.6-0.1-0.9,0.1c-0.3,0.2-0.4,0.3-0.5,0.4c-0.3,0.3-0.5,0.6-0.8,0.9c-0.1,0.2-0.3,0.3-0.4,0.5c-0.2,0.2-0.3,0.5-0.3,0.7
	c0,0.6,0.4,1,0.8,1.1c0.2,0.1,0.5,0.1,0.7,0c0.1,0,0.2-0.1,0.3-0.2c0.1-0.1,0.2-0.1,0.3-0.2c0.3-0.2,0.6-0.5,0.8-0.9
	C57.5,115.3,57.7,115.1,57.8,114.9z M51.6,116.6c0,0,0,0,0.1,0.1c0,0,0.1,0.1,0.1,0.1c0.2,0.1,0.3,0.1,0.4,0.1c0.1,0,0.3,0,0.4-0.1
	c0.1,0,0.3-0.2,0.4-0.3c0.2-0.2,0.2-0.4,0.2-0.7l0-0.3c0-0.1,0-0.1,0-0.2c0-0.1-0.1-0.2-0.1-0.2c-0.1-0.2-0.2-0.3-0.3-0.5
	c-0.2-0.3-0.5-0.6-0.7-0.9c-0.1-0.1-0.3-0.3-0.4-0.4c-0.1-0.1-0.1-0.1-0.3-0.2c-0.2-0.1-0.4-0.1-0.5-0.1c-0.3,0-0.6,0.1-0.8,0.3
	c-0.2,0.2-0.3,0.5-0.3,0.8c0,0.3,0.1,0.5,0.3,0.7c0.2,0.1,0.3,0.3,0.4,0.4c0.3,0.3,0.4,0.7,0.7,1c0.1,0.2,0.3,0.3,0.4,0.4
	L51.6,116.6z M52.1,128.6c0,0.2,0.1,0.5,0.3,0.7c0.2,0.2,0.5,0.3,0.7,0.4c0.6,0,1.1-0.3,1.3-0.9c0.1-0.3,0-0.5,0-0.6
	c0-0.2-0.1-0.3-0.1-0.5c-0.1-0.4-0.1-0.7-0.1-1c0-0.4-0.3-0.9-0.8-1c-0.3,0-0.5,0-0.8,0.2c-0.2,0.2-0.3,0.4-0.4,0.7
	c0,0.3,0.1,0.4,0.1,0.6c0.1,0.2,0.1,0.3,0.1,0.5c0,0.2,0,0.3-0.1,0.5C52.2,128.2,52.1,128.3,52.1,128.6z M47.9,126.9
	c0.4,0,0.9-0.4,0.9-0.9c0-0.2,0-0.5-0.2-0.7c-0.2-0.2-0.4-0.3-0.7-0.3c-0.3,0-0.4,0.1-0.6,0.2c-0.2,0-0.3,0.1-0.5,0.1
	c-0.2,0-0.3,0-0.5-0.1c-0.2,0-0.3-0.2-0.6-0.2c-0.2,0-0.5,0.1-0.7,0.3c-0.2,0.2-0.3,0.5-0.3,0.8c0,0.4,0.3,0.9,0.7,1.1
	c-0.5,0.1-0.9,0.4-1.3,0.7c-0.5,0.5-0.7,1.3-0.6,2c0.1,0.7,0.4,1.3,0.8,1.8c0.4,0.5,1,0.9,1.8,1c0.7,0.1,1.5-0.3,1.9-0.9
	c0.4-0.6,0.5-1.3,0.5-1.9c0-0.6-0.1-1.3-0.5-1.9c-0.3-0.5-0.8-0.8-1.3-0.9c0,0,0.1,0,0.1,0C47.2,126.9,47.5,126.9,47.9,126.9z
	 M46.5,130.3c-0.2,0.1-0.4,0-0.4-0.1c-0.1-0.1-0.2-0.1-0.3,0c-0.2,0-0.4-0.1-0.4-0.3c0-0.2,0.2-0.3,0.4-0.3c0.2,0,0.2,0.1,0.3,0.1
	c0.1,0,0.3,0,0.5,0.3C46.7,130,46.7,130.2,46.5,130.3z M61.7,111.8c-0.6,0-1.3,0.1-1.9,0.5c-0.6,0.4-1,1.2-1,1.9
	c-0.1,1.6,1.5,2.9,2.9,2.6c0.7-0.1,1.3-0.4,1.8-0.9c0.5-0.4,0.9-1,1-1.8c0.1-0.7-0.3-1.5-0.9-1.9C63,111.9,62.3,111.8,61.7,111.8z
	 M62,114.2c0,0.1,0,0.3-0.2,0.5c-0.1,0.1-0.3,0.1-0.4-0.1c-0.1-0.1,0-0.4,0.1-0.4c0.1-0.1,0.1-0.1,0-0.3c0-0.2,0.1-0.4,0.3-0.4
	c0.2,0,0.3,0.2,0.3,0.4C62,114.1,62,114.1,62,114.2z M53.9,119.4c-0.7,0.1-1.3,0.4-1.8,0.9c-0.5,0.4-0.9,1-1,1.8
	c-0.1,0.7,0.3,1.5,0.9,1.9c0.6,0.4,1.3,0.5,1.9,0.5c0.6,0,1.3-0.1,1.9-0.5c0.6-0.4,1-1.1,1-1.9C56.9,120.4,55.3,119.1,53.9,119.4z
	 M54.2,122c0,0.1,0,0.3-0.2,0.5c-0.1,0.1-0.3,0.1-0.4-0.1c-0.1-0.1,0-0.4,0.1-0.4c0.1-0.1,0.1-0.1,0-0.3c0-0.2,0.1-0.4,0.3-0.4
	c0.2,0,0.3,0.2,0.3,0.4C54.2,121.9,54.2,121.9,54.2,122z M115.5,83.6c0.7-0.1,1.3-0.4,1.8-0.9c0.5-0.4,0.9-1,1-1.8
	c0.1-0.7-0.3-1.5-0.9-1.9c-0.6-0.4-1.3-0.5-1.9-0.5c-0.6,0-1.3,0.1-1.9,0.5c-0.6,0.4-1,1.2-1,1.9C112.6,82.5,114.1,83.9,115.5,83.6z
	 M115.3,81c0-0.1,0-0.3,0.3-0.5c0.1-0.1,0.3-0.1,0.4,0.1c0.1,0.1,0,0.4-0.1,0.4c-0.1,0.1,0,0.1,0,0.3c0,0.2-0.1,0.4-0.3,0.4
	c-0.2,0-0.3-0.2-0.3-0.4C115.2,81.1,115.3,81,115.3,81z M126.9,80.7c-3.1-2.9-7.2-4.5-11.4-4.5c-4.1-0.1-8.3,1.5-11.4,4.4
	c-3.1,2.9-4.9,7.1-4.9,11.4c0,2.1,0.4,4.3,1.2,6.2c0.8,2,2.1,3.8,3.6,5.3c3,3,7.3,4.7,11.5,4.6c4.2,0,8.3-1.8,11.3-4.8
	c1.5-1.5,2.7-3.2,3.6-5.1c0.9-1.9,1.3-4,1.4-6.1C131.8,87.8,130,83.5,126.9,80.7z M128.5,97.4c-0.7,1.6-1.8,3.1-3.1,4.3
	c0.4-0.5,0.6-1.2,0.5-1.9c-0.1-0.7-0.4-1.3-0.8-1.8c-0.4-0.5-1.1-0.9-1.8-1c-0.7-0.1-1.5,0.3-1.9,0.9c-0.4,0.6-0.5,1.3-0.5,1.9
	c0,0.6,0.1,1.3,0.5,1.9c0.4,0.6,1.2,1,1.9,1c0.5,0,1-0.1,1.4-0.4c-2.6,2.2-5.9,3.4-9.2,3.4c-3.6,0-7.1-1.5-9.7-4
	c-2.4-2.4-3.9-5.7-4.2-9.1c0.3,1.3,1.6,2.3,2.9,2.1c0.7-0.1,1.3-0.4,1.8-0.9c0.5-0.4,0.9-1,1-1.8c0.1-0.7-0.3-1.5-0.9-1.9
	c-0.6-0.4-1.3-0.5-1.9-0.5c-0.6,0-1.3,0.1-1.9,0.5c-0.6,0.4-0.9,1.1-1,1.8c-0.1-3.6,1.4-7.3,4-9.9c2.6-2.6,6.3-4,9.9-3.9
	c3.6,0,7.2,1.5,9.8,4c2.7,2.5,4.4,6.1,4.3,9.8C129.7,93.9,129.3,95.7,128.5,97.4z M124.1,99.8c0,0.2-0.2,0.4-0.4,0.3
	c-0.2,0-0.2-0.1-0.3-0.1c-0.2,0-0.3,0-0.5-0.2c-0.1-0.1-0.1-0.3,0.1-0.4c0.1-0.1,0.4,0,0.4,0.1c0.1,0.1,0.2,0,0.3,0
	C123.8,99.5,124.1,99.6,124.1,99.8z M104,91.6c0.1-0.1,0.4,0,0.4,0.1c0.1,0.1,0.1,0,0.3,0c0.2,0,0.4,0.1,0.4,0.3
	c0,0.2-0.2,0.4-0.4,0.3c-0.2,0-0.3,0-0.3-0.1c-0.1,0-0.3,0-0.5-0.2C103.9,91.9,103.9,91.7,104,91.6z M109.6,86.1
	c0.4-0.6,0.5-1.3,0.5-1.9c0-0.6-0.1-1.3-0.5-1.9c-0.4-0.6-1.2-1-1.9-1c-0.7,0-1.5,0.3-2,0.9c-0.5,0.5-0.7,1.3-0.6,2
	c0.1,0.7,0.4,1.3,0.8,1.8c0.4,0.5,1,0.9,1.8,1C108.4,87.1,109.2,86.7,109.6,86.1z M107.4,84.5c-0.2,0-0.4-0.1-0.4-0.3
	c0-0.2,0.2-0.3,0.4-0.3c0.2,0,0.2,0.1,0.3,0.1c0.1,0,0.3,0,0.5,0.2c0.1,0.1,0.1,0.3-0.1,0.4c-0.1,0.1-0.4,0-0.4-0.1
	C107.6,84.5,107.6,84.5,107.4,84.5z M119.4,84.9c0.1-0.2,0.1-0.4,0.2-0.7c0.1-0.2,0.1-0.4,0-0.7c-0.1-0.3-0.3-0.5-0.6-0.6
	c-0.3-0.1-0.6-0.1-0.9,0.1c-0.3,0.2-0.4,0.3-0.5,0.4c-0.3,0.3-0.5,0.6-0.8,0.9c-0.1,0.2-0.3,0.3-0.4,0.5c-0.2,0.2-0.3,0.5-0.3,0.7
	c0,0.6,0.4,1,0.8,1.1c0.2,0.1,0.5,0.1,0.7,0c0.1,0,0.2-0.1,0.3-0.2c0.1-0.1,0.2-0.1,0.3-0.2c0.3-0.2,0.6-0.5,0.8-0.9
	C119.2,85.3,119.3,85.1,119.4,84.9z M122.2,94.8c-0.3-0.1-0.5,0-0.6,0c-0.2,0-0.3,0.1-0.5,0.1c-0.4,0.1-0.6,0.1-1,0.1
	c-0.4,0-0.9,0.3-1,0.9c0,0.3,0,0.5,0.2,0.7c0.2,0.2,0.4,0.3,0.7,0.3c0.3,0,0.4-0.1,0.6-0.1c0.2-0.1,0.3-0.1,0.5-0.1
	c0.2,0,0.3,0,0.5,0.1c0.2,0,0.3,0.2,0.6,0.2c0.5,0,1-0.5,1-1C123.2,95.4,122.8,94.9,122.2,94.8z M115.5,89.4
	c-0.7,0.1-1.3,0.4-1.8,0.9c-0.5,0.4-0.9,1-1,1.8c-0.1,0.7,0.3,1.5,0.9,1.9c0.6,0.4,1.3,0.5,1.9,0.5c0.6,0,1.3-0.1,1.9-0.5
	c0.6-0.4,1-1.1,1-1.9C118.5,90.5,117,89.1,115.5,89.4z M115.8,92c0,0.1,0,0.3-0.2,0.5c-0.1,0.1-0.3,0.1-0.4-0.1
	c-0.1-0.1,0-0.4,0.1-0.4c0.1-0.1,0.1-0.1,0-0.3c0-0.2,0.1-0.4,0.3-0.4c0.2,0,0.3,0.2,0.3,0.4C115.8,91.9,115.8,91.9,115.8,92z
	 M123.9,92c0.1,0.7,0.4,1.3,0.9,1.8c0.4,0.5,1,0.9,1.8,1c0.7,0.1,1.5-0.3,1.9-0.9c0.4-0.6,0.5-1.3,0.5-1.9c0-0.6-0.1-1.3-0.5-1.9
	c-0.4-0.6-1.2-1-1.9-1C125,89.1,123.7,90.6,123.9,92z M126.3,91.7c0.2,0,0.3,0,0.3,0.1c0.1,0,0.3,0,0.5,0.2c0.1,0.1,0.1,0.3-0.1,0.4
	c-0.1,0.1-0.4,0-0.4-0.1c-0.1-0.1-0.1,0-0.3,0c-0.2,0-0.4-0.1-0.4-0.3C125.9,91.8,126.1,91.7,126.3,91.7z M123.3,81.8
	c-0.6,0-1.3,0.1-1.9,0.5c-0.6,0.4-1,1.2-1,1.9c-0.1,1.6,1.5,2.9,2.9,2.6c0.7-0.1,1.3-0.4,1.8-0.9c0.5-0.4,0.9-1,1-1.8
	c0.1-0.7-0.3-1.5-0.9-1.9C124.6,81.9,124,81.8,123.3,81.8z M123.6,84.2c0,0.1,0,0.3-0.2,0.5c-0.1,0.1-0.3,0.1-0.4-0.1
	c-0.1-0.1,0-0.4,0.1-0.4c0.1-0.1,0.1-0.1,0-0.3c0-0.2,0.1-0.4,0.3-0.4c0.2,0,0.3,0.2,0.3,0.4C123.6,84.1,123.6,84.1,123.6,84.2z
	 M120.2,93.1c0.3,0,0.5-0.1,0.7-0.3c0.1-0.2,0.3-0.3,0.4-0.4c0.3-0.3,0.7-0.4,1-0.7c0.2-0.1,0.3-0.3,0.4-0.4
	c0.2-0.1,0.4-0.5,0.3-0.8c0-0.3-0.3-0.6-0.5-0.7c-0.2-0.1-0.4-0.1-0.6-0.2c-0.3,0-0.4-0.1-0.7,0.1c-0.2,0.1-0.4,0.2-0.5,0.3
	c-0.3,0.2-0.6,0.5-0.9,0.7c-0.1,0.1-0.3,0.3-0.4,0.4c0,0-0.2,0.2-0.2,0.4c-0.1,0.2-0.1,0.3-0.1,0.5C119,92.7,119.6,93.1,120.2,93.1z
	 M113.2,86.6c0,0,0,0,0.1,0.1c0,0,0.1,0.1,0.1,0.1c0.2,0.1,0.3,0.1,0.4,0.1c0.1,0,0.3,0,0.4-0.1c0.1,0,0.3-0.2,0.4-0.3
	c0.2-0.2,0.2-0.4,0.2-0.7l0-0.3c0-0.1,0-0.1,0-0.2c0-0.1-0.1-0.2-0.1-0.2c-0.1-0.2-0.2-0.3-0.3-0.5c-0.2-0.3-0.5-0.6-0.7-0.9
	c-0.1-0.1-0.3-0.3-0.4-0.4c-0.1-0.1-0.1-0.1-0.3-0.2c-0.2-0.1-0.4-0.1-0.5-0.1c-0.3,0-0.6,0.1-0.8,0.3c-0.2,0.2-0.3,0.5-0.3,0.8
	c0,0.3,0.1,0.5,0.3,0.7c0.2,0.1,0.3,0.3,0.4,0.4c0.3,0.3,0.4,0.7,0.7,1c0.1,0.2,0.3,0.3,0.4,0.4L113.2,86.6z M109.5,96.9
	c0.4,0,0.9-0.4,0.9-0.9c0-0.2,0-0.5-0.2-0.7c-0.2-0.2-0.4-0.3-0.7-0.3c-0.3,0-0.4,0.1-0.6,0.2c-0.2,0.1-0.3,0.1-0.5,0.1
	c-0.2,0-0.3,0-0.5-0.1c-0.2,0-0.3-0.2-0.6-0.2c-0.2,0-0.5,0.1-0.7,0.3c-0.2,0.2-0.3,0.5-0.3,0.8c0,0.4,0.3,0.9,0.7,1.1
	c-0.5,0.1-0.9,0.4-1.3,0.7c-0.5,0.5-0.7,1.3-0.6,2c0.1,0.7,0.4,1.3,0.8,1.8c0.4,0.5,1,0.9,1.8,1c0.7,0.1,1.5-0.3,1.9-0.9
	c0.4-0.6,0.5-1.3,0.5-1.9c0-0.6-0.1-1.3-0.5-1.9c-0.3-0.5-0.8-0.8-1.3-0.9c0,0,0.1,0,0.1,0C108.8,96.9,109.1,96.9,109.5,96.9z
	 M108.1,100.3c-0.2,0.1-0.4,0-0.4-0.1c-0.1-0.1-0.2-0.1-0.3,0c-0.2,0-0.4-0.1-0.4-0.3c0-0.2,0.2-0.3,0.4-0.3c0.2,0,0.2,0.1,0.3,0.1
	c0.1,0,0.3,0,0.5,0.3C108.3,100,108.3,100.2,108.1,100.3z M108,90.9c0.1,0.2,0.3,0.3,0.4,0.4c0.1,0,0.2,0.2,0.3,0.2
	c0.1,0.1,0.3,0.1,0.5,0.1c0.3,0,0.6-0.2,0.7-0.5c0.1-0.2,0.1-0.4,0.2-0.6l0-0.3c0-0.1,0-0.1,0-0.2c0-0.1-0.1-0.2-0.1-0.2
	c-0.1-0.2-0.2-0.3-0.3-0.5c-0.2-0.3-0.5-0.6-0.7-0.9c-0.1-0.1-0.3-0.3-0.4-0.4l-0.1-0.1c-0.1-0.1-0.2-0.1-0.2-0.2
	c-0.2-0.1-0.3-0.1-0.5-0.1c-0.6,0-1.1,0.6-1.1,1.2c0,0.3,0.1,0.5,0.3,0.7c0.2,0.1,0.3,0.3,0.4,0.4C107.6,90.2,107.7,90.5,108,90.9z
	 M115.5,100.4c-0.7,0.1-1.3,0.4-1.8,0.9c-0.5,0.4-0.9,1-1,1.8c-0.1,0.7,0.3,1.5,0.9,1.9c0.6,0.4,1.3,0.5,1.9,0.5
	c0.6,0,1.3-0.1,1.9-0.5c0.6-0.4,1-1.2,1-1.9C118.5,101.5,116.9,100.2,115.5,100.4z M115.8,103.1c0,0.1,0,0.3-0.3,0.5
	c-0.1,0.1-0.3,0.1-0.4-0.1c-0.1-0.1,0-0.4,0.1-0.4c0.1-0.1,0-0.1,0-0.3c0-0.2,0.1-0.4,0.3-0.4c0.2,0,0.3,0.2,0.3,0.4
	C115.8,102.9,115.8,103,115.8,103.1z M113.7,98.6c0,0.2,0.1,0.5,0.3,0.7c0.2,0.2,0.5,0.3,0.7,0.4c0.6,0,1.1-0.3,1.3-0.9
	c0.1-0.3,0-0.5,0-0.6c0-0.2-0.1-0.3-0.1-0.5c-0.1-0.4-0.1-0.7-0.1-1c0-0.4-0.3-0.9-0.8-1c-0.3,0-0.5,0-0.8,0.2
	c-0.2,0.2-0.3,0.4-0.4,0.7c0,0.3,0.1,0.4,0.1,0.6c0.1,0.2,0.1,0.3,0.1,0.5c0,0.2,0,0.3-0.1,0.5C113.8,98.2,113.7,98.3,113.7,98.6z
	 M171.3,57.5c0,0,0,0,0.1,0.1c0,0,0.1,0.1,0.1,0.1c0.2,0.1,0.3,0.1,0.4,0.1c0.1,0,0.3,0,0.4-0.1c0.1,0,0.3-0.2,0.4-0.3
	c0.2-0.2,0.2-0.4,0.2-0.7l0-0.3c0-0.1,0-0.1,0-0.2c0-0.1-0.1-0.2-0.1-0.2c-0.1-0.2-0.2-0.3-0.3-0.5c-0.2-0.3-0.5-0.6-0.7-0.9
	c-0.1-0.1-0.3-0.3-0.4-0.4c-0.1-0.1-0.1-0.1-0.3-0.2c-0.2-0.1-0.4-0.1-0.5-0.1c-0.3,0-0.6,0.1-0.8,0.3c-0.2,0.2-0.3,0.5-0.3,0.8
	c0,0.3,0.1,0.5,0.3,0.7c0.2,0.1,0.3,0.3,0.4,0.4c0.3,0.3,0.4,0.7,0.7,1c0.1,0.2,0.3,0.3,0.4,0.4L171.3,57.5z M173.6,54.5
	c0.7-0.1,1.3-0.4,1.8-0.9c0.5-0.4,0.9-1,1-1.8c0.1-0.7-0.3-1.5-0.9-1.9c-0.6-0.4-1.3-0.5-1.9-0.5c-0.6,0-1.3,0.1-1.9,0.5
	c-0.6,0.4-1,1.2-1,1.9C170.7,53.4,172.2,54.8,173.6,54.5z M173.4,51.9c0-0.1,0-0.3,0.3-0.5c0.1-0.1,0.3-0.1,0.4,0.1
	c0.1,0.1,0,0.4-0.1,0.4c-0.1,0.1,0,0.1,0,0.3c0,0.2-0.1,0.4-0.3,0.4c-0.2,0-0.3-0.2-0.3-0.4C173.3,52,173.3,51.9,173.4,51.9z
	 M167.7,57c0.4-0.6,0.5-1.3,0.5-1.9c0-0.6-0.1-1.3-0.5-1.9c-0.4-0.6-1.2-1-1.9-1c-0.7,0-1.5,0.3-2,0.9c-0.5,0.5-0.7,1.3-0.6,2
	c0.1,0.7,0.4,1.3,0.8,1.8c0.4,0.5,1,0.9,1.8,1C166.5,58,167.3,57.6,167.7,57z M165.5,55.4c-0.2,0-0.4-0.1-0.4-0.3
	c0-0.2,0.2-0.3,0.4-0.3c0.2,0,0.2,0.1,0.3,0.1c0.1,0,0.3,0,0.5,0.2c0.1,0.1,0.1,0.3-0.1,0.4c-0.1,0.1-0.4,0-0.4-0.1
	C165.7,55.4,165.7,55.4,165.5,55.4z M167.6,67.8c0.4,0,0.9-0.4,0.9-0.9c0-0.2,0-0.5-0.2-0.7c-0.2-0.2-0.4-0.3-0.7-0.3
	c-0.3,0-0.4,0.1-0.6,0.2c-0.2,0-0.3,0.1-0.5,0.1c-0.2,0-0.3,0-0.5-0.1c-0.2,0-0.3-0.2-0.6-0.2c-0.2,0-0.5,0.1-0.7,0.3
	c-0.2,0.2-0.3,0.5-0.3,0.8c0,0.4,0.3,0.9,0.7,1.1c-0.5,0.1-0.9,0.4-1.3,0.7c-0.5,0.5-0.7,1.3-0.6,2c0.1,0.7,0.4,1.3,0.8,1.8
	c0.4,0.5,1,0.9,1.8,1c0.7,0.1,1.5-0.3,1.9-0.9c0.4-0.6,0.5-1.3,0.5-1.9c0-0.6-0.1-1.3-0.5-1.9c-0.3-0.5-0.8-0.8-1.3-0.9
	c0,0,0.1,0,0.1,0C166.9,67.8,167.2,67.8,167.6,67.8z M166.2,71.2c-0.2,0.1-0.4,0-0.4-0.1c-0.1-0.1-0.2-0.1-0.3,0
	c-0.2,0-0.4-0.1-0.4-0.3c0-0.2,0.2-0.3,0.4-0.3c0.2,0,0.2,0.1,0.3,0.1c0.1,0,0.3,0,0.5,0.3C166.4,70.9,166.4,71.1,166.2,71.2z
	 M166.1,61.8c0.1,0.2,0.3,0.3,0.4,0.4c0.1,0,0.2,0.2,0.3,0.2c0.1,0.1,0.3,0.1,0.5,0.1c0.3,0,0.6-0.2,0.7-0.5
	c0.1-0.2,0.1-0.4,0.2-0.6l0-0.3c0-0.1,0-0.1,0-0.2c0-0.1-0.1-0.2-0.1-0.2c-0.1-0.2-0.2-0.3-0.3-0.5c-0.2-0.3-0.5-0.6-0.7-0.9
	c-0.1-0.1-0.3-0.3-0.4-0.4l-0.1-0.1c-0.1-0.1-0.2-0.1-0.2-0.2c-0.2-0.1-0.3-0.1-0.5-0.1c-0.6,0-1.1,0.6-1.1,1.2
	c0,0.3,0.1,0.5,0.3,0.7c0.2,0.1,0.3,0.3,0.4,0.4C165.7,61.1,165.8,61.4,166.1,61.8z M173.6,71.3c-0.7,0.1-1.3,0.4-1.8,0.9
	c-0.5,0.4-0.9,1-1,1.8c-0.1,0.7,0.3,1.5,0.9,1.9c0.6,0.4,1.3,0.5,1.9,0.5c0.6,0,1.3-0.1,1.9-0.5c0.6-0.4,1-1.2,1-1.9
	C176.6,72.4,175,71.1,173.6,71.3z M173.9,74c0,0.1,0,0.3-0.3,0.5c-0.1,0.1-0.3,0.1-0.4-0.1c-0.1-0.1,0-0.4,0.1-0.4
	c0.1-0.1,0-0.1,0-0.3c0-0.2,0.1-0.4,0.3-0.4c0.2,0,0.3,0.2,0.3,0.4C173.9,73.8,173.9,73.9,173.9,74z M185,51.6
	c-3.1-2.9-7.2-4.5-11.4-4.5c-4.1-0.1-8.3,1.5-11.4,4.4c-3.1,2.9-4.9,7.1-4.9,11.4c0,2.1,0.4,4.3,1.2,6.2c0.8,2,2.1,3.8,3.6,5.3
	c3,3,7.3,4.7,11.5,4.6c4.2,0,8.3-1.8,11.3-4.8c1.5-1.5,2.7-3.2,3.6-5.1c0.9-1.9,1.3-4,1.4-6.1C189.9,58.7,188.1,54.4,185,51.6z
	 M186.6,68.3c-0.7,1.6-1.8,3.1-3.1,4.3c0.4-0.5,0.6-1.2,0.5-1.9c-0.1-0.7-0.4-1.3-0.8-1.8c-0.4-0.5-1.1-0.9-1.8-1
	c-0.7-0.1-1.5,0.3-1.9,0.9c-0.4,0.6-0.5,1.3-0.5,1.9c0,0.6,0.1,1.3,0.5,1.9c0.4,0.6,1.2,1,1.9,1c0.5,0,1-0.1,1.4-0.4
	c-2.6,2.2-5.9,3.4-9.2,3.4c-3.6,0-7.1-1.5-9.7-4c-2.4-2.4-3.9-5.7-4.2-9.1c0.3,1.3,1.6,2.3,2.9,2.1c0.7-0.1,1.3-0.4,1.8-0.9
	c0.5-0.4,0.9-1,1-1.8c0.1-0.7-0.3-1.5-0.9-1.9c-0.6-0.4-1.3-0.5-1.9-0.5c-0.6,0-1.3,0.1-1.9,0.5c-0.6,0.4-0.9,1.1-1,1.8
	c-0.1-3.6,1.4-7.3,4-9.9c2.6-2.6,6.3-4,9.9-3.9c3.6,0,7.2,1.5,9.8,4c2.7,2.5,4.4,6.1,4.3,9.8C187.7,64.8,187.4,66.6,186.6,68.3z
	 M182.2,70.7c0,0.2-0.2,0.4-0.4,0.3c-0.2,0-0.2-0.1-0.3-0.1c-0.2,0-0.3,0-0.5-0.2c-0.1-0.1-0.1-0.3,0.1-0.4c0.1-0.1,0.4,0,0.4,0.1
	c0.1,0.1,0.2,0,0.3,0C181.9,70.4,182.2,70.5,182.2,70.7z M162.1,62.5c0.1-0.1,0.4,0,0.4,0.1c0.1,0.1,0.1,0,0.3,0
	c0.2,0,0.4,0.1,0.4,0.3c0,0.2-0.2,0.4-0.4,0.3c-0.2,0-0.3,0-0.3-0.1c-0.1,0-0.3,0-0.5-0.2C162,62.8,162,62.6,162.1,62.5z M182,62.9
	c0.1,0.7,0.4,1.3,0.9,1.8c0.4,0.5,1,0.9,1.8,1c0.7,0.1,1.5-0.3,1.9-0.9c0.4-0.6,0.5-1.3,0.5-1.9c0-0.6-0.1-1.3-0.5-1.9
	c-0.4-0.6-1.2-1-1.9-1C183.1,60,181.8,61.5,182,62.9z M184.3,62.6c0.2,0,0.3,0,0.3,0.1c0.1,0,0.3,0,0.5,0.2c0.1,0.1,0.1,0.3-0.1,0.4
	c-0.1,0.1-0.4,0-0.4-0.1c-0.1-0.1-0.1,0-0.3,0c-0.2,0-0.4-0.1-0.4-0.3C183.9,62.7,184.2,62.6,184.3,62.6z M171.8,69.5
	c0,0.2,0.1,0.5,0.3,0.7c0.2,0.2,0.5,0.3,0.7,0.4c0.6,0,1.1-0.3,1.3-0.9c0.1-0.3,0-0.5,0-0.6c0-0.2-0.1-0.3-0.1-0.5
	c-0.1-0.4-0.1-0.7-0.1-1c0-0.4-0.3-0.9-0.8-1c-0.3,0-0.5,0-0.8,0.2c-0.2,0.2-0.3,0.4-0.4,0.7c0,0.3,0.1,0.4,0.1,0.6
	c0.1,0.2,0.1,0.3,0.1,0.5c0,0.2,0,0.3-0.1,0.5C171.9,69.1,171.8,69.2,171.8,69.5z M181.4,52.7c-0.6,0-1.3,0.1-1.9,0.5
	c-0.6,0.4-1,1.2-1,1.9c-0.1,1.6,1.5,2.9,2.9,2.6c0.7-0.1,1.3-0.4,1.8-0.9c0.5-0.4,0.9-1,1-1.8c0.1-0.7-0.3-1.5-0.9-1.9
	C182.7,52.8,182,52.7,181.4,52.7z M181.7,55.1c0,0.1,0,0.3-0.2,0.5c-0.1,0.1-0.3,0.1-0.4-0.1c-0.1-0.1,0-0.4,0.1-0.4
	c0.1-0.1,0.1-0.1,0-0.3c0-0.2,0.1-0.4,0.3-0.4c0.2,0,0.3,0.2,0.3,0.4C181.7,55,181.7,55,181.7,55.1z M178.3,64
	c0.3,0,0.5-0.1,0.7-0.3c0.1-0.2,0.3-0.3,0.4-0.4c0.3-0.3,0.7-0.4,1-0.7c0.2-0.1,0.3-0.3,0.4-0.4c0.2-0.1,0.4-0.5,0.3-0.8
	c0-0.3-0.3-0.6-0.5-0.7c-0.2-0.1-0.4-0.1-0.6-0.2c-0.3,0-0.4-0.1-0.7,0.1c-0.2,0.1-0.4,0.2-0.5,0.3c-0.3,0.2-0.6,0.5-0.9,0.7
	c-0.1,0.1-0.3,0.3-0.4,0.4c0,0-0.2,0.2-0.2,0.4c-0.1,0.2-0.1,0.3-0.1,0.5C177.1,63.6,177.7,64,178.3,64z M177.5,55.8
	c0.1-0.2,0.1-0.4,0.2-0.7c0.1-0.2,0.1-0.4,0-0.7c-0.1-0.3-0.3-0.5-0.6-0.6c-0.3-0.1-0.6-0.1-0.9,0.1c-0.3,0.2-0.4,0.3-0.5,0.4
	c-0.3,0.3-0.5,0.6-0.8,0.9c-0.1,0.2-0.3,0.3-0.4,0.5c-0.2,0.2-0.3,0.5-0.3,0.7c0,0.6,0.4,1,0.8,1.1c0.2,0.1,0.5,0.1,0.7,0
	c0.1,0,0.2-0.1,0.3-0.2c0.1-0.1,0.2-0.1,0.3-0.2c0.3-0.2,0.6-0.5,0.8-0.9C177.2,56.2,177.4,56,177.5,55.8z M180.3,65.7
	c-0.3-0.1-0.5,0-0.6,0c-0.2,0-0.3,0.1-0.5,0.1c-0.4,0.1-0.6,0.1-1,0.1c-0.4,0-0.9,0.3-1,0.9c0,0.3,0,0.5,0.2,0.7
	c0.2,0.2,0.4,0.3,0.7,0.3c0.3,0,0.4-0.1,0.6-0.1c0.2-0.1,0.3-0.1,0.5-0.1c0.2,0,0.3,0,0.5,0.1c0.2,0,0.3,0.2,0.6,0.2
	c0.5,0,1-0.5,1-1C181.3,66.3,180.9,65.8,180.3,65.7z M173.6,60.3c-0.7,0.1-1.3,0.4-1.8,0.9c-0.5,0.4-0.9,1-1,1.8
	c-0.1,0.7,0.3,1.5,0.9,1.9c0.6,0.4,1.3,0.5,1.9,0.5c0.6,0,1.3-0.1,1.9-0.5c0.6-0.4,1-1.1,1-1.9C176.6,61.4,175,60,173.6,60.3z
	 M173.9,62.9c0,0.1,0,0.3-0.2,0.5c-0.1,0.1-0.3,0.1-0.4-0.1c-0.1-0.1,0-0.4,0.1-0.4c0.1-0.1,0.1-0.1,0-0.3c0-0.2,0.1-0.4,0.3-0.4
	c0.2,0,0.3,0.2,0.3,0.4C173.9,62.8,173.9,62.9,173.9,62.9z M239.8,126.3L202.7,5.1c-0.6-2-2.8-3.2-4.9-2.6L5.7,61.3
	c-2,0.6-3.2,2.8-2.6,4.9l37.1,121.2c0.6,2,2.8,3.2,4.9,2.6l192.1-58.7C239.3,130.6,240.5,128.5,239.8,126.3z M206.5,25.9l11,36
	l-31.9,15.8c0.5-0.4,1-0.8,1.4-1.3c1.6-1.6,2.9-3.5,4-5.6c0.5-1,0.9-2.1,1.2-3.2c0.1-0.6,0.3-1.1,0.4-1.7l0.1-0.9l0-0.4l0-0.2
	c0,0,0-0.1,0-0.1l0-0.1l0-0.1l0-2.5l0,0l0,0c-0.3-2.3-0.7-4.6-1.7-6.7c-1-2.1-2.3-4.1-4-5.6c-1.7-1.6-3.7-2.8-5.7-3.8
	c-2.1-0.9-4.4-1.4-6.6-1.6l0,0l-2.5,0c-1.7,0.2-3.5,0.5-5.1,1.1L206.5,25.9z M185.7,75c-1.5,1.6-3.4,2.9-5.5,3.9
	c-2.1,0.9-4.3,1.4-6.6,1.4c-2.3-0.1-4.5-0.5-6.6-1.4c-2.1-0.9-3.9-2.2-5.5-3.9c-3.1-3.2-4.8-7.6-4.8-12c0-4.4,1.8-8.8,4.9-12
	c3.1-3.2,7.5-5,12-5.1c4.5-0.1,9,1.7,12.2,4.9c3.2,3.2,4.9,7.7,4.8,12.2C190.5,67.4,188.8,71.7,185.7,75z M162.7,47.2
	c-0.9,0.6-1.8,1.3-2.6,2.1c-1.7,1.6-3.1,3.5-4,5.6c-0.2,0.5-0.5,1.1-0.7,1.6c-0.2,0.5-0.4,1.1-0.5,1.7c-0.2,0.6-0.2,1.1-0.3,1.7
	l-0.1,0.9c0,0.3-0.1,0.6-0.1,0.8l0,0l0,0.1l0,2.5l0,0l0,0c0.2,2.2,0.8,4.6,1.7,6.7c1,2.1,2.3,4.1,4,5.7c1.7,1.6,3.6,2.9,5.7,3.9
	c1.1,0.5,2.2,0.8,3.3,1.1c1.1,0.3,2.3,0.3,3.3,0.5l0.1,0l0,0l2.5,0l0,0l0,0c1-0.1,2-0.3,3.1-0.6l-24.2,12L142.6,57L162.7,47.2z
	 M152,94.3l-23.6,11.7c0.2-0.2,0.4-0.4,0.6-0.6c1.6-1.6,2.9-3.5,4-5.6c0.5-1,0.9-2.1,1.2-3.2c0.1-0.6,0.3-1.1,0.4-1.7l0.1-0.9l0-0.4
	l0-0.2c0,0,0-0.1,0-0.1l0-0.1l0-0.1l0-2.5l0,0l0,0c-0.3-2.3-0.7-4.6-1.7-6.7c-1-2.1-2.3-4.1-4-5.6c-1.7-1.6-3.7-2.8-5.7-3.8
	c-2.1-0.9-4.4-1.4-6.6-1.6l0,0l-2.5,0c-2.3,0.2-4.5,0.7-6.6,1.6c-2.1,0.9-4.1,2.2-5.7,3.8c-1.7,1.6-3.1,3.5-4,5.6
	c-0.2,0.5-0.5,1.1-0.7,1.6c-0.2,0.5-0.4,1.1-0.5,1.7c-0.2,0.6-0.2,1.1-0.3,1.7l-0.1,0.9c0,0.3-0.1,0.6-0.1,0.8l0,0l0,0.1l0,2.5l0,0
	l0,0c0.2,2.2,0.8,4.6,1.7,6.7c1,2.1,2.3,4.1,4,5.7c1.7,1.6,3.6,2.9,5.7,3.9c1.1,0.5,2.2,0.8,3.3,1.1c1.1,0.3,2.3,0.3,3.3,0.5l0.1,0
	l0,0l2.5,0l0,0l0,0c0.6-0.1,1.3-0.2,1.9-0.3l-26.5,13.2L80.9,86.9l59.9-29.2L152,94.3z M127.6,104.1c-1.5,1.6-3.4,2.9-5.5,3.9
	c-2.1,0.9-4.3,1.4-6.6,1.4c-2.3-0.1-4.5-0.5-6.6-1.4c-2.1-0.9-3.9-2.2-5.5-3.9c-3.1-3.2-4.8-7.6-4.8-12c0-4.4,1.8-8.8,4.9-12
	c3.1-3.2,7.5-5,12-5.1c4.5-0.1,9,1.7,12.2,4.9c3.2,3.2,4.9,7.7,4.8,12.2C132.4,96.5,130.7,100.8,127.6,104.1z M74.2,49.1l4.8-1.5
	l12.5,16.3l-4.2,1.4l-2.7-3.9l-6.7,2.2l0.1,4.8l-4.2,1.4L74.2,49.1z M66.9,51.5l0.8,2.5L63,69.5l9-2.9l1,3.2l-13.7,4.4l-0.8-2.5
	l4.7-15.5L54.7,59l-1-3.2L66.9,51.5z M52,56.3l0.8,2.5l-4.7,15.5l9-2.9l1,3.2L44.5,79l-0.8-2.5L48.4,61l-8.6,2.8l-1-3.2L52,56.3z
	 M35.6,61.6L41.6,80l-3.9,1.3l-5.9-18.4L35.6,61.6z M21.4,66.2c2.2-0.7,4.1-0.8,5.5-0.2c1.5,0.6,2.5,1.8,3.1,3.7
	c0.6,2,0.5,3.7-0.4,5.1c-0.9,1.4-2.5,2.5-4.8,3.3l-1.7,0.5l2.1,6.5l-3.9,1.3l-5.9-18.4L21.4,66.2z M21,116l58.1-28.2L90.6,125
	l-26.1,12.9c1-0.7,2-1.5,2.9-2.4c1.6-1.6,2.9-3.5,4-5.6c0.5-1,0.9-2.1,1.2-3.2c0.1-0.6,0.3-1.1,0.4-1.7l0.1-0.9l0-0.4l0-0.2
	c0,0,0-0.1,0-0.1l0-0.1l0-0.1l0-2.5l0,0l0,0c-0.3-2.3-0.7-4.6-1.7-6.7c-1-2.1-2.3-4.1-4-5.6c-1.7-1.6-3.7-2.8-5.7-3.8
	c-2.1-0.9-4.4-1.4-6.6-1.6l0,0l-2.5,0c-2.3,0.2-4.5,0.7-6.6,1.6c-2.1,0.9-4.1,2.2-5.7,3.8c-1.7,1.6-3.1,3.5-4,5.6
	c-0.2,0.5-0.5,1.1-0.7,1.6c-0.2,0.5-0.4,1.1-0.5,1.7c-0.2,0.6-0.2,1.1-0.3,1.7l-0.1,0.9c0,0.3-0.1,0.6-0.1,0.8l0,0l0,0.1l0,2.5l0,0
	l0,0c0.2,2.2,0.8,4.6,1.7,6.7c1,2.1,2.3,4.1,4,5.7c1.7,1.6,3.6,2.9,5.7,3.9c1.1,0.5,2.2,0.8,3.3,1.1c1.1,0.3,2.3,0.3,3.3,0.5l0.1,0
	l0,0l2.5,0l0,0l0,0c1.6-0.2,3.3-0.6,4.9-1.1l-27.5,13.7L21,116z M60.5,137.9c-2.1,0.9-4.3,1.4-6.6,1.4c-2.3-0.1-4.5-0.5-6.6-1.4
	c-2.1-0.9-3.9-2.2-5.5-3.9c-3.1-3.2-4.8-7.6-4.8-12c0-4.4,1.8-8.8,4.9-12c3.1-3.2,7.5-5,12-5.1c4.5-0.1,9,1.7,12.2,4.9
	c3.2,3.2,4.9,7.7,4.8,12.2c0,4.4-1.8,8.8-4.9,12.1C64.4,135.7,62.6,137,60.5,137.9z M84.9,171.4l-3.3,1.6c-1.8,0.6-3.6,1-5.5,1
	c-2.3-0.1-4.5-0.5-6.6-1.4c-2.1-0.9-3.9-2.2-5.5-3.9c-3.1-3.2-4.8-7.6-4.8-12c0-4.4,1.8-8.8,4.9-12c3.1-3.2,7.5-5,12-5.1
	c4.5-0.1,9,1.7,12.2,4.9c3.2,3.2,4.9,7.7,4.8,12.2c0,4.4-1.8,8.8-4.9,12.1C87.2,169.8,86.1,170.7,84.9,171.4z M91.2,168.3
	c0.9-1.2,1.7-2.4,2.3-3.7c0.5-1,0.9-2.1,1.2-3.2c0.1-0.6,0.3-1.1,0.4-1.7l0.1-0.9l0-0.4l0-0.2c0,0,0-0.1,0-0.1l0-0.1l0-0.1l0-2.5
	l0,0l0,0c-0.3-2.3-0.7-4.6-1.7-6.7c-1-2.1-2.3-4.1-4-5.6c-1.7-1.6-3.7-2.8-5.7-3.8c-2.1-0.9-4.4-1.4-6.6-1.6l0,0l-2.5,0
	c-2.3,0.2-4.5,0.7-6.6,1.6c-2.1,0.9-4.1,2.2-5.7,3.8c-1.7,1.6-3.1,3.5-4,5.6c-0.2,0.5-0.5,1.1-0.7,1.6c-0.2,0.5-0.4,1.1-0.5,1.7
	c-0.2,0.6-0.2,1.1-0.3,1.7l-0.1,0.9c0,0.3-0.1,0.6-0.1,0.8l0,0l0,0.1l0,2.5l0,0l0,0c0.2,2.2,0.8,4.6,1.7,6.7c1,2.1,2.3,4.1,4,5.7
	c1.7,1.6,3.6,2.9,5.7,3.9c1.1,0.5,2.2,0.8,3.3,1.1c1.1,0.3,2.3,0.3,3.3,0.5l0.1,0l0,0l0.8,0l-11.6,5.7l-19.7,6
	c-0.8,0.2-1.6-0.2-1.9-1l-9.5-31l58-28.8l11,36.1L91.2,168.3z M103.8,162.1l-11-36.1l59.8-29.7l11.1,36.5L103.8,162.1z M165.6,131.9
	l-11.1-36.5l63.8-31.7l11.2,36.9L165.6,131.9z M23.5,75.1c1.2-0.4,2-0.9,2.5-1.6c0.4-0.7,0.5-1.5,0.2-2.4c-0.3-0.9-0.8-1.5-1.4-1.8
	c-0.6-0.3-1.5-0.2-2.6,0.1L20.5,70l1.8,5.5L23.5,75.1z M78.3,52.3c-0.3-0.5-0.6-0.8-0.7-1.1c0.1,1.2,0.1,4.1,0.2,8.7l4.8-1.5
	C80,54.8,78.6,52.7,78.3,52.3z"/>
</svg>
