<?xml version="1.0" encoding="utf-8"?>
<!-- Generator: Adobe Illustrator 21.0.0, SVG Export Plug-In . SVG Version: 6.00 Build 0)  -->
<svg version="1.1" id="icon_1_" xmlns="http://www.w3.org/2000/svg" xmlns:xlink="http://www.w3.org/1999/xlink" x="0px" y="0px"
	 viewBox="0 0 24 24" style="enable-background:new 0 0 24 24;" xml:space="preserve">
<g>
	<path d="M23.7,11.4c-0.1-2.6-1.1-4.9-2.9-6.9C19,2.6,16.6,1.4,14,1C9.1,0.3,4.2,2.3,1.6,6.8C0.2,9.2,0,12,0.8,14.7
		c0.5,1.5,1.3,2.6,2.1,3.9c0.7,1,0.9,2.3-0.2,3.1c-0.3,0.2-1.5,0.4-1.3,0.9c0.2,0.5,1.4,0.6,1.8,0.6c1.5,0.1,2.9-0.6,4.4-0.8
		c1.5-0.2,2.9,0.2,4.4,0.2c1.4,0,2.8-0.2,4.1-0.7C20.4,20.3,23.9,16.2,23.7,11.4z M16.7,16.6H7.3c-0.4,0-0.7-0.3-0.7-0.7
		c0-0.4,0.3-0.7,0.7-0.7h9.4c0.4,0,0.7,0.3,0.7,0.7C17.4,16.2,17.1,16.6,16.7,16.6z M16.7,12.7H7.3c-0.4,0-0.7-0.3-0.7-0.7
		s0.3-0.7,0.7-0.7h9.4c0.4,0,0.7,0.3,0.7,0.7S17.1,12.7,16.7,12.7z M16.7,8.9H7.3c-0.4,0-0.7-0.3-0.7-0.7c0-0.4,0.3-0.7,0.7-0.7h9.4
		c0.4,0,0.7,0.3,0.7,0.7C17.4,8.6,17.1,8.9,16.7,8.9z"/>
</g>
</svg>
