<?xml version="1.0" encoding="utf-8"?>
<!-- Generator: Adobe Illustrator 21.0.0, SVG Export Plug-In . SVG Version: 6.00 Build 0)  -->
<svg version="1.1" id="icon_1_" xmlns="http://www.w3.org/2000/svg" xmlns:xlink="http://www.w3.org/1999/xlink" x="0px" y="0px"
	 viewBox="0 0 24 24" style="enable-background:new 0 0 24 24;" xml:space="preserve">
<g>
	<path d="M17.3,2.5c2.7,0,4.9,2.2,4.9,5c0,3.5-2.3,5.5-5.2,8.1c-1.6,1.5-3.5,3.1-5.1,5.2c-1.6-2.1-3.4-3.6-5-5.1
		c-2.9-2.6-5.2-4.6-5.2-8.3c0-2.7,2.2-5,4.9-5c1.9,0,3.6,1.1,4.4,2.9L12,7.3l0.9-1.9C13.7,3.6,15.5,2.5,17.3,2.5 M17.3,1.5
		c-2.4,0-4.4,1.4-5.3,3.4c-0.9-2-3-3.4-5.3-3.4c-3.3,0-5.9,2.7-5.9,6c0,6.7,6.7,8.4,11.3,15c4.3-6.6,11.3-8.6,11.3-15
		C23.3,4.2,20.6,1.5,17.3,1.5L17.3,1.5z"/>
</g>
</svg>
