<?xml version="1.0" encoding="utf-8"?>
<!-- Generator: Adobe Illustrator 21.0.0, SVG Export Plug-In . SVG Version: 6.00 Build 0)  -->
<svg version="1.1" id="icon_1_" xmlns="http://www.w3.org/2000/svg" xmlns:xlink="http://www.w3.org/1999/xlink" x="0px" y="0px"
	 viewBox="0 0 24 24" style="enable-background:new 0 0 24 24;" xml:space="preserve">
<style type="text/css">
	.st0{display:none;}
	.st1{fill:none;}
</style>
<path class="st0" d="M5.9,18.5c-0.5-0.1-1.5-0.4-2-0.7c-1.5,0.4-2.9,1-3.9,1.8V24h3v-1.6C3.1,21,4.4,19.1,5.9,18.5z M2.5,14.1
	c0,2.2,1.8,4,4,4c0.8-0.4,1.7-0.8,2.7-1c-1.4-1-2.3-2.6-2.3-4.4c0-0.9,0.3-1.8,0.7-2.5c-0.3-0.1-0.6-0.1-1-0.1
	C4.3,10,2.5,11.8,2.5,14.1z M12,8c-2.6,0-4.7,2.1-4.7,4.7s2.1,4.7,4.7,4.7s4.7-2.1,4.7-4.7S14.6,8,12,8z M14.9,17.1
	c1,0.2,1.9,0.6,2.7,1c2.2,0,4-1.8,4-4s-1.8-4-4-4c-0.3,0-0.6,0.1-1,0.1c0.4,0.8,0.7,1.6,0.7,2.5C17.2,14.5,16.3,16.1,14.9,17.1z
	 M18.1,18.5c1.4,0.6,2.8,2.5,2.9,3.8V24h3v-4.4c-1-0.8-2.4-1.4-3.9-1.7C19.6,18.2,18.7,18.4,18.1,18.5z M14.2,17.4
	c-0.7,0.4-1.5,0.6-2.3,0.6s-1.6-0.2-2.3-0.6c-3.5,0.7-6.1,3-6.3,5.2c0,0,0,1.3,0,1.4h17c0.1,0,0.1-1.3,0.1-1.4
	C20.3,20.5,17.7,18.1,14.2,17.4z M24,5.9V4.8C24,2.2,21.8,0,19.2,0H4.8C2.2,0,0,2.2,0,4.8v1.1l0,0c0,0,0,12.5,0,13.1
	c0.9-0.7,1.3-0.8,1.6-1c0-0.5,0-12.1,0-12.1l0,0V4.8C1.6,3,3,1.6,4.8,1.6h14.4c1.8,0,3.2,1.4,3.2,3.2v1.1l0,0c0,0,0,11.6,0,12.1
	c0.3,0.1,0.7,0.3,1.6,1C24,18.4,24,5.9,24,5.9L24,5.9z"/>
<g>
	<rect x="7.3" y="2.2" class="st1" width="0.8" height="4.8"/>
	<polygon class="st1" points="12.3,6.3 9.8,6.3 12.3,2.8 12.3,2.2 9,2.2 9,2.9 11.3,2.9 8.9,6.5 8.9,7 12.3,7 	"/>
	<polygon class="st1" points="16.2,6.3 13.7,6.3 16.1,2.8 16.1,2.2 12.8,2.2 12.8,2.9 15.2,2.9 12.8,6.5 12.8,7 16.2,7 	"/>
	<path class="st1" d="M17.7,5.7h1.8L20,7h0.8l-1.8-4.8h-0.9L16.4,7h0.8L17.7,5.7z M18.4,3.7c0.1-0.3,0.2-0.6,0.3-0.9
		c0,0.1,0.1,0.2,0.1,0.4c0.1,0.2,0.1,0.3,0.1,0.4L19.4,5H18L18.4,3.7z"/>
	<path class="st1" d="M3.9,5.2h0.5c0.6,0,1.1-0.1,1.4-0.4c0.3-0.3,0.5-0.7,0.5-1.2c0-0.5-0.1-0.8-0.4-1.1C5.6,2.3,5.1,2.2,4.5,2.2
		H3.1V7h0.8V5.2z M3.9,2.9h0.5c0.4,0,0.6,0.1,0.8,0.2c0.2,0.1,0.3,0.3,0.3,0.6c0,0.3-0.1,0.5-0.3,0.7S4.7,4.5,4.3,4.5H3.9V2.9z"/>
	<path d="M13.7,13.4c0.1,0,0.2-0.1,0.2-0.3L13.8,13C13.6,13,13.6,13.1,13.7,13.4C13.6,13.2,13.6,13.3,13.7,13.4z M14.3,13.7
		c0.2,0.2,0.5,0.3,0.7,0.4c0.2,0,0.3,0,0.3-0.3c-0.2-0.1-0.4-0.1-0.6-0.2c-0.2-0.1-0.3-0.3-0.5-0.4c-0.1,0.1-0.2,0.2-0.3,0.2
		C14,13.5,14.1,13.6,14.3,13.7z M14.1,12.5c0-0.3-0.1-0.4-0.3-0.3C13.8,12.4,13.8,12.4,14.1,12.5z M16.9,11.4c0,0.1,0.1,0.1,0.1,0.2
		c0.2,0,0.2,0,0.3,0.1c0-0.1,0-0.2-0.1-0.3c0-0.1-0.1-0.1-0.2-0.1L16.9,11.4z M14.9,11.8c0,0,0.1-0.2,0-0.2
		c-0.1-0.1-0.2-0.1-0.3-0.2c-0.1,0-0.2,0-0.2,0.1c0,0.2,0.1,0.3,0,0.5C14.8,12.2,14.7,11.8,14.9,11.8z M15.9,12.4
		c0-0.1-0.1-0.2-0.1-0.2s-0.1,0-0.2,0.1c-0.1,0.1,0,0.2,0,0.4C15.8,12.7,15.9,12.6,15.9,12.4z M17.1,15.5c0.1-0.1,0.2-0.1,0.2-0.2
		V15l-0.1-0.1c0-0.2-0.1-0.2-0.4-0.2c0.1,0.1,0.1,0.2,0.2,0.3v0.1C17.1,15.3,17.1,15.4,17.1,15.5z M15.9,14.7c0-0.1,0-0.2,0-0.2
		c0-0.1-0.1-0.1-0.2-0.1l-0.1,0.1c0,0,0,0.1,0.1,0.1C15.7,14.6,15.8,14.6,15.9,14.7z M18.8,12.2c-0.1,0.1-0.2,0.3-0.3,0.5v-0.3
		c0-0.2-0.1-0.3-0.3-0.4c-0.1,0-0.3-0.1-0.5-0.1c0.1-0.1,0.1-0.2,0.2-0.3c0.1-0.1,0.1-0.2,0-0.3c-0.1,0-0.2-0.1-0.3-0.1
		c-0.2,0-0.3,0.1-0.2,0.3v0.1c-0.1,0.1,0,0.2,0.1,0.3c-0.1,0.1-0.2,0.3-0.3,0.4c-0.2-0.2-0.4-0.4-0.5-0.4c0.1,0,0.1-0.1,0.1-0.2
		c0,0,0,0,0-0.1c-0.1,0-0.1,0-0.2,0l0.3-0.3c0-0.1,0.1-0.2,0.1-0.2c-0.1-0.1-0.2-0.2-0.3-0.2c0,0-0.1,0.1-0.2,0.1
		c-0.1,0.2-0.2,0.2-0.3,0.1c-0.1,0-0.2-0.1-0.3-0.1c-0.3-0.1-0.5,0-0.5,0.3v0.6c0,0-0.1,0-0.2,0c-0.2,0.1-0.4,0.2-0.6,0.3
		c-0.1,0.1-0.2,0.2-0.3,0.3c-0.2,0.2-0.2,0.4,0,0.6s0.4,0.2,0.6,0.2v0.1c0.1,0.2,0.2,0.2,0.3,0.2c0.1,0,0.2-0.1,0.2-0.1
		c0-0.2,0.1-0.3,0.1-0.5l0.1,0.1c0.1-0.1,0.1-0.3,0-0.4c-0.2,0-0.3-0.2-0.4-0.5c0.2,0,0.5-0.1,0.7-0.1c0-0.1,0-0.1,0-0.1
		c0.1-0.1,0.2-0.1,0.3-0.1c0.1-0.1,0.2-0.1,0.2,0c-0.1,0-0.2,0.1-0.2,0.1c-0.1,0.1-0.2,0.3-0.3,0.5c-0.1,0.3,0.1,0.5,0.4,0.7
		c-0.1,0.1-0.2,0.2-0.4,0.1c-0.1-0.1-0.2,0-0.3,0.2h0.3c-0.1,0.2,0,0.4,0.2,0.5c0.2,0.2,0.5,0.2,0.7,0c0.3-0.3,0.3-0.6,0.1-0.9
		c0.2-0.1,0.4-0.3,0.4-0.6c0.3,0.4,0.6,0.5,1,0.2v0.1c0,0.1-0.4,0.2-0.4,0.2h-0.5c-0.1,0-0.2,0.1-0.2,0.3h0.6v0.5h-0.5
		c-0.2,0-0.3,0.3-0.1,0.4c0.1,0.1,0.1,0.1,0.1,0.3c0,0.1,0,0.2,0.1,0.2h0.4c0,0,0-0.1,0.1-0.2c0-0.1,0-0.1,0.1-0.2
		c0-0.1,0.1-0.1,0.1-0.2c0.3,0.3,0.7,0.4,1.1,0.3c0.3-0.1,0.5-0.4,0.5-0.8s-0.2-0.7-0.6-0.8c0.1-0.1,0.1-0.2,0.2-0.3
		c0.1-0.1,0.1-0.2,0-0.3C19.1,12.2,18.9,12.1,18.8,12.2z M18.7,14.9c-0.1,0-0.1,0-0.2,0l-0.1-0.1c-0.2-0.2-0.4-0.2-0.6,0
		c-0.1,0.1-0.1,0.1-0.2,0.2c-0.1,0.1-0.2,0.3-0.1,0.5c0.1,0.2,0.3,0.2,0.5,0.3c0,0,0.2,0,0.2-0.1c0.2-0.2,0.5-0.1,0.6-0.5h0.1
		l0.1-0.1c0-0.1-0.1-0.2-0.1-0.2C18.9,14.8,18.8,14.9,18.7,14.9z M15.6,14.5L15.6,14.5C15.6,14.5,15.6,14.5,15.6,14.5z M13.4,13.6
		c-0.1,0.1,0,0.2,0,0.3c0.1,0,0.2,0,0.2,0.1c0-0.1,0-0.2,0-0.2C13.5,13.7,13.4,13.7,13.4,13.6z M15.3,15.7c-0.1,0-0.2,0.1-0.2,0.3
		c0,0.1,0.1,0.2,0.1,0.2c0.2,0,0.2-0.1,0.2-0.3C15.4,15.8,15.3,15.7,15.3,15.7z M15.4,16.5c0.2,0.1,0.2,0.1,0.4-0.1
		C15.6,16.2,15.5,16.2,15.4,16.5z M13.4,13.6C13.3,13.6,13.3,13.7,13.4,13.6L13.4,13.6z M17.5,15.9h-0.4c0-0.3-0.2-0.3-0.4-0.3
		c0-0.1,0-0.3,0-0.3c-0.1-0.1-0.2-0.2-0.3-0.3c0.1,0,0.1,0,0.2,0c0-0.1-0.1-0.2-0.3-0.2s-0.4,0.2-0.5,0.4c0,0.1,0,0.2,0.1,0.3
		c0-0.1,0.1-0.1,0.1-0.2c0.1,0.1,0.1,0.2,0.2,0.3c-0.1,0.1-0.2,0.1-0.3,0.2c-0.2-0.2-0.3-0.4-0.3-0.7c-0.1,0-0.3,0-0.4-0.1
		c-0.2-0.2-0.3-0.4-0.5-0.6c-0.1-0.1-0.2-0.2-0.3-0.2c-0.1,0-0.1-0.1-0.2-0.1c-0.1-0.4-0.4-0.4-0.5-0.2c0,0-0.1,0-0.1,0.1
		c-0.1,0-0.1,0.1-0.2,0.1c-0.3,0.3-0.4,0.6-0.3,1c0.1,0.4,0.3,0.6,0.7,0.7c0.3,0,0.6,0.1,1-0.1c0.3-0.1,0.4-0.3,0.5-0.6
		c0,0.1,0,0.2,0.1,0.2c0.1,0.2,0.2,0.3,0.4,0.5c0,0.1,0.1,0.1,0.1,0.2c0.1,0.3,0.2,0.4,0.5,0.5c0.2,0.1,0.4,0,0.6-0.2
		c0,0,0-0.1,0.1-0.1c0,0.1,0.1,0.2,0.1,0.2c0,0.1,0,0.2,0.1,0.2c0.1,0,0.2,0,0.2-0.2c0,0,0-0.1,0.1-0.1
		C17.7,16.1,17.7,15.9,17.5,15.9z M14.3,15.3c0,0.1-0.1,0.2-0.2,0.2c-0.3,0-0.6-0.2-0.6-0.4c-0.1-0.3,0-0.6,0.3-0.7
		c0.2,0.2,0.3,0.2,0.5,0c0.1,0.1,0.2,0.1,0.2,0.2C14.4,14.8,14.4,15.1,14.3,15.3z M16.8,9.9h-1c-0.1,0-0.3,0.1-0.4,0.1
		c-1.6,0.4-2.8,1.7-3.1,3.3v1c0,0.1,0.1,0.3,0.1,0.4c0.4,1.6,1.7,2.8,3.3,3.1h1c0.2,0,0.4-0.1,0.6-0.1c1.6-0.5,2.6-1.6,2.9-3.3v-1
		c0-0.1-0.1-0.3-0.1-0.4C19.8,11.3,18.5,10.1,16.8,9.9z M19.8,14.3c-0.2,2.2-2.2,3.2-3.9,3c-0.8-0.1-1.4-0.3-2-0.8
		c-0.9-0.8-1.3-1.8-1.2-2.9c0.1-2.1,1.8-3.3,3.9-3.3c0.8,0.1,1.8,0.4,2.5,1.4C19.8,12.4,19.9,13.3,19.8,14.3z M6.3,14.7
		c0,0,0.1-0.2,0-0.2c-0.1-0.1-0.2-0.1-0.3-0.2c-0.1,0-0.2,0-0.2,0.1c0,0.2,0.1,0.3,0,0.5C6.2,15.1,6.1,14.7,6.3,14.7z M5.5,15.4
		c0-0.3-0.1-0.4-0.3-0.3C5.2,15.3,5.2,15.3,5.5,15.4z M5.1,16.3c0.1,0,0.2-0.1,0.2-0.3l-0.1-0.1C5,15.9,5,16,5.1,16.3
		C5,16.1,5,16.2,5.1,16.3z M18.9,3.7c0-0.1-0.1-0.2-0.1-0.4c-0.1-0.2-0.1-0.3-0.1-0.4c-0.1,0.3-0.1,0.6-0.3,0.9L18,5h1.4L18.9,3.7z
		 M8.3,14.3c0,0.1,0.1,0.1,0.1,0.2c0.2,0,0.2,0,0.3,0.1c0-0.1,0-0.2-0.1-0.3c0-0.1-0.1-0.1-0.2-0.1L8.3,14.3z M5.2,4.3
		C5.4,4.2,5.5,4,5.5,3.7c0-0.3-0.1-0.5-0.3-0.6C5.1,2.9,4.8,2.9,4.5,2.9H3.9v1.7h0.4C4.7,4.5,5,4.5,5.2,4.3z M5.7,16.6
		c0.2,0.2,0.5,0.3,0.7,0.4c0.2,0,0.3,0,0.3-0.3c-0.2-0.1-0.4-0.1-0.6-0.2c-0.2-0.1-0.3-0.3-0.5-0.4c-0.1,0.1-0.2,0.2-0.3,0.2
		C5.4,16.4,5.5,16.5,5.7,16.6z M21,0H3C1.3,0,0,1.3,0,3v18c0,1.7,1.3,3,3,3h18c1.7,0,3-1.3,3-3V3C24,1.3,22.7,0,21,0z M18.2,2.2h0.9
		L20.9,7H20l-0.5-1.3h-1.8L17.3,7h-0.8L18.2,2.2z M12.8,6.5l2.4-3.6h-2.4V2.2h3.3v0.6l-2.4,3.6h2.5V7h-3.4V6.5z M8.9,6.5l2.4-3.6H9
		V2.2h3.3v0.6L9.8,6.3h2.5V7H8.9V6.5z M7.3,2.2h0.8V7H7.3V2.2z M3.1,2.2h1.4c0.6,0,1,0.1,1.3,0.4c0.3,0.2,0.4,0.6,0.4,1.1
		c0,0.5-0.2,0.9-0.5,1.2C5.5,5.1,5,5.2,4.4,5.2H3.9V7H3.1V2.2z M21.8,20.8c0,0.5-0.4,1-1,1H3.2c-0.6,0-1-0.5-1-1V10.1
		c0-0.5,0.4-1,1-1h17.5c0.6,0,1,0.5,1,1V20.8z M6.7,18.6c-0.1,0-0.2,0.1-0.2,0.3c0,0.1,0.1,0.2,0.1,0.2c0.2,0,0.2-0.1,0.2-0.3
		C6.8,18.7,6.7,18.6,6.7,18.6z M10.1,17.8c-0.1,0-0.1,0-0.2,0l-0.1-0.1c-0.2-0.2-0.4-0.2-0.6,0c-0.1,0.1-0.1,0.1-0.2,0.2
		c-0.1,0.1-0.2,0.3-0.1,0.5c0.1,0.2,0.3,0.2,0.5,0.3c0,0,0.2,0,0.2-0.1c0.2-0.2,0.5-0.1,0.6-0.5h0.1l0.1-0.1c0-0.1-0.1-0.2-0.1-0.2
		C10.3,17.7,10.2,17.8,10.1,17.8z M8.5,18.4c0.1-0.1,0.2-0.1,0.2-0.2v-0.3l-0.1-0.1c0-0.2-0.1-0.2-0.4-0.2c0.1,0.1,0.1,0.2,0.2,0.3
		V18C8.5,18.2,8.5,18.3,8.5,18.4z M8.2,12.8h-1c-0.1,0-0.3,0.1-0.4,0.1c-1.6,0.4-2.8,1.7-3.1,3.3v1c0,0.1,0.1,0.3,0.1,0.4
		c0.4,1.6,1.7,2.8,3.3,3.1h1c0.2,0,0.4-0.1,0.6-0.1c1.6-0.5,2.6-1.6,2.9-3.3v-1c0-0.1-0.1-0.3-0.1-0.4C11.2,14.2,9.9,13,8.2,12.8z
		 M11.2,17.2c-0.2,2.2-2.2,3.2-3.9,3c-0.8-0.1-1.4-0.3-2-0.8c-0.9-0.8-1.3-1.8-1.2-2.9c0.1-2.1,1.8-3.3,3.9-3.3
		c0.8,0.1,1.8,0.4,2.5,1.4C11.2,15.3,11.3,16.2,11.2,17.2z M7.3,15.3c0-0.1-0.1-0.2-0.1-0.2s-0.1,0-0.2,0.1c-0.1,0.1,0,0.2,0,0.4
		C7.2,15.6,7.3,15.5,7.3,15.3z M7.3,17.6c0-0.1,0-0.2,0-0.2c0-0.1-0.1-0.1-0.2-0.1L7,17.4c0,0,0,0.1,0.1,0.1
		C7.1,17.5,7.2,17.5,7.3,17.6z M10.2,15.1c-0.1,0.1-0.2,0.3-0.3,0.5v-0.3c0-0.2-0.1-0.3-0.3-0.4c-0.1,0-0.3-0.1-0.5-0.1
		c0.1-0.1,0.1-0.2,0.2-0.3c0.1-0.1,0.1-0.2,0-0.3c-0.1,0-0.2-0.1-0.3-0.1c-0.2,0-0.3,0.1-0.2,0.3v0.1c-0.1,0.1,0,0.2,0.1,0.3
		c-0.1,0.1-0.2,0.3-0.3,0.4c-0.2-0.2-0.4-0.4-0.5-0.4c0.1,0,0.1-0.1,0.1-0.2c0,0,0,0,0-0.1c-0.1,0-0.1,0-0.2,0l0.3-0.3
		c0-0.1,0.1-0.2,0.1-0.2c-0.1-0.1-0.2-0.2-0.3-0.2c0,0-0.1,0.1-0.2,0.1c-0.1,0.2-0.2,0.2-0.3,0.1c-0.1,0-0.2-0.1-0.3-0.1
		c-0.3-0.1-0.5,0-0.5,0.3v0.6c0,0-0.1,0-0.2,0C6.4,14.9,6.2,15,6,15.1c-0.1,0.1-0.2,0.2-0.3,0.3c-0.2,0.2-0.2,0.4,0,0.6
		s0.4,0.2,0.6,0.2v0.1c0.1,0.2,0.2,0.2,0.3,0.2c0.1,0,0.2-0.1,0.2-0.1c0-0.2,0.1-0.3,0.1-0.5L7,16c0.1-0.1,0.1-0.3,0-0.4
		c-0.2,0-0.3-0.2-0.4-0.5c0.2,0,0.5-0.1,0.7-0.1c0-0.1,0-0.1,0-0.1c0.1-0.1,0.2-0.1,0.3-0.1c0.1-0.1,0.2-0.1,0.2,0
		c-0.1,0-0.2,0.1-0.2,0.1c-0.1,0.1-0.2,0.3-0.3,0.5c-0.1,0.3,0.1,0.5,0.4,0.7c-0.1,0.1-0.2,0.2-0.4,0.1c-0.1-0.1-0.2,0-0.3,0.2h0.3
		c-0.1,0.2,0,0.4,0.2,0.5c0.2,0.2,0.5,0.2,0.7,0c0.3-0.3,0.3-0.6,0.1-0.9c0.2-0.1,0.4-0.3,0.4-0.6c0.3,0.4,0.6,0.5,1,0.2v0.1
		c0,0.1-0.4,0.2-0.4,0.2H8.8c-0.1,0-0.2,0.1-0.2,0.3h0.6v0.5H8.7c-0.2,0-0.3,0.3-0.1,0.4c0.1,0.1,0.1,0.1,0.1,0.3
		c0,0.1,0,0.2,0.1,0.2h0.4c0,0,0-0.1,0.1-0.2c0-0.1,0-0.1,0.1-0.2c0-0.1,0.1-0.1,0.1-0.2c0.3,0.3,0.7,0.4,1.1,0.3
		c0.3-0.1,0.5-0.4,0.5-0.8s-0.2-0.7-0.6-0.8c0.1-0.1,0.1-0.2,0.2-0.3c0.1-0.1,0.1-0.2,0-0.3C10.5,15.1,10.3,15,10.2,15.1z M7,17.4
		L7,17.4C7,17.3,7,17.3,7,17.4z M4.8,16.5C4.7,16.5,4.7,16.6,4.8,16.5L4.8,16.5z M6.8,19.4C7,19.5,7,19.5,7.2,19.3
		C7,19.1,6.9,19.1,6.8,19.4z M4.8,16.5c-0.1,0.1,0,0.2,0,0.3c0.1,0,0.2,0,0.2,0.1c0-0.1,0-0.2,0-0.2C4.9,16.6,4.8,16.6,4.8,16.5z
		 M8.9,18.8H8.5c0-0.3-0.2-0.3-0.4-0.3c0-0.1,0-0.3,0-0.3C8,18.1,7.9,18,7.8,17.9c0.1,0,0.1,0,0.2,0c0-0.1-0.1-0.2-0.3-0.2
		s-0.4,0.2-0.5,0.4c0,0.1,0,0.2,0.1,0.3c0-0.1,0.1-0.1,0.1-0.2c0.1,0.1,0.1,0.2,0.2,0.3c-0.1,0.1-0.2,0.1-0.3,0.2
		C7.1,18.5,7,18.3,7,18c-0.1,0-0.3,0-0.4-0.1c-0.2-0.2-0.3-0.4-0.5-0.6c-0.1-0.1-0.2-0.2-0.3-0.2c-0.1,0-0.1-0.1-0.2-0.1
		c-0.1-0.4-0.4-0.4-0.5-0.2c0,0-0.1,0-0.1,0.1c-0.1,0-0.1,0.1-0.2,0.1c-0.3,0.3-0.4,0.6-0.3,1c0.1,0.4,0.3,0.6,0.7,0.7
		c0.3,0,0.6,0.1,1-0.1c0.3-0.1,0.4-0.3,0.5-0.6c0,0.1,0,0.2,0.1,0.2c0.1,0.2,0.2,0.3,0.4,0.5c0,0.1,0.1,0.1,0.1,0.2
		c0.1,0.3,0.2,0.4,0.5,0.5c0.2,0.1,0.4,0,0.6-0.2c0,0,0-0.1,0.1-0.1c0,0.1,0.1,0.2,0.1,0.2c0,0.1,0,0.2,0.1,0.2c0.1,0,0.2,0,0.2-0.2
		c0,0,0-0.1,0.1-0.1C9.1,19,9.1,18.8,8.9,18.8z M5.7,18.2c0,0.1-0.1,0.2-0.2,0.2c-0.3,0-0.6-0.2-0.6-0.4c-0.1-0.3,0-0.6,0.3-0.7
		c0.2,0.2,0.3,0.2,0.5,0c0.1,0.1,0.2,0.1,0.2,0.2C5.8,17.7,5.8,18,5.7,18.2z"/>
</g>
</svg>
