<?xml version="1.0" encoding="utf-8"?>
<!-- Generator: Adobe Illustrator 21.0.0, SVG Export Plug-In . SVG Version: 6.00 Build 0)  -->
<svg version="1.1" id="icon_1_" xmlns="http://www.w3.org/2000/svg" xmlns:xlink="http://www.w3.org/1999/xlink" x="0px" y="0px"
	 viewBox="0 0 24 24" style="enable-background:new 0 0 24 24;" xml:space="preserve">
<g>
	<path d="M12,3.3l2.7,5.4l0.2,0.5l0.5,0.1l6,0.9l-4.3,4.2l-0.4,0.4l0.1,0.5l1,6l-5.4-2.8L12,18.1l-0.5,0.2l-5.4,2.8l1-6l0.1-0.5
		l-0.4-0.4l-4.3-4.2l6-0.9l0.5-0.1l0.2-0.5L12,3.3 M12,1L8.4,8.2l-8,1.2L6.2,15l-1.4,8l7.1-3.8l7.1,3.8l-1.4-8l5.8-5.6l-8-1.2L12,1
		L12,1z"/>
</g>
</svg>
