<?xml version="1.0" encoding="utf-8"?>
<!-- Generator: Adobe Illustrator 21.0.0, SVG Export Plug-In . SVG Version: 6.00 Build 0)  -->
<svg version="1.1" id="icon" xmlns="http://www.w3.org/2000/svg" xmlns:xlink="http://www.w3.org/1999/xlink" x="0px" y="0px"
	 viewBox="0 0 24 24" style="enable-background:new 0 0 24 24;" xml:space="preserve">
<path d="M21,0H3C1.4,0,0,1.4,0,3v18c0,1.6,1.4,3,3,3h18c1.6,0,3-1.4,3-3V3C24,1.4,22.6,0,21,0z M19,7.7c-1.1,0.8-1.3,2-1.5,3.3
	c-0.6,3.5-3.2,6.1-6.6,6.7c-2.1,0.4-4.1,0-5.9-1.1c1.4-0.1,2.8-0.3,3.9-1.2c-1.1-0.4-2.1-0.8-2.5-2.1c0.3,0,0.6-0.1,1.1-0.1
	c-1.3-0.6-2.1-1.5-2.2-2.9c0.4,0.1,0.7,0.2,1.2,0.3C5.3,9.4,5,8.1,5.7,6.6c1.6,1.8,3.6,3,6,3.1c0.1-0.5,0.1-1,0.2-1.4
	c0.5-1.8,2.6-2.8,4.2-1.8c0.8,0.5,1.5,0.5,2.2,0.1c0.1-0.1,0.2-0.1,0.5,0c-0.3,0.4-0.6,0.8-1,1.4c0.5-0.1,0.9-0.2,1.2-0.3
	C19,7.7,19,7.7,19,7.7z"/>
</svg>
