<?xml version="1.0" encoding="utf-8"?>
<!-- Generator: Adobe Illustrator 21.0.0, SVG Export Plug-In . SVG Version: 6.00 Build 0)  -->
<svg version="1.1" id="icon_1_" xmlns="http://www.w3.org/2000/svg" xmlns:xlink="http://www.w3.org/1999/xlink" x="0px" y="0px"
	 viewBox="0 0 24 24" style="enable-background:new 0 0 24 24;" xml:space="preserve">
<g>
	<path d="M10.1,17.5c-4.1,0-7.4-3.3-7.4-7.4S6,2.7,10.1,2.7s7.4,3.3,7.4,7.4S14.2,17.5,10.1,17.5z M10.1,3.7c-3.5,0-6.4,2.9-6.4,6.4
		s2.9,6.4,6.4,6.4s6.4-2.9,6.4-6.4S13.6,3.7,10.1,3.7z"/>
	<path d="M20.6,21.3c-0.2,0-0.4-0.1-0.5-0.2l-4.2-4.2c-0.3-0.3-0.3-0.8,0-1.1s0.8-0.3,1.1,0l4.2,4.2c0.3,0.3,0.3,0.8,0,1.1
		C20.9,21.2,20.7,21.3,20.6,21.3z"/>
</g>
</svg>
