<?xml version="1.0" encoding="utf-8"?>
<!-- Generator: Adobe Illustrator 21.0.2, SVG Export Plug-In . SVG Version: 6.00 Build 0)  -->
<svg version="1.1" id="icon_1_" xmlns="http://www.w3.org/2000/svg" xmlns:xlink="http://www.w3.org/1999/xlink" x="0px" y="0px"
	 viewBox="0 0 24 24" style="enable-background:new 0 0 24 24;" xml:space="preserve">
<style type="text/css">
	.st0{opacity:0.5;fill:#274E75;}
</style>
<path class="st0" d="M18,18.5l-5.2-0.1c-0.2,0-0.4,0.2-0.3,0.4l0.9,1.6c-0.5,0.1-1,0.1-1.5,0.1c-4.8,0-8.7-3.9-8.7-8.7
	c0-1.4,0.3-2.7,0.9-3.9c0.2-0.3,0-0.7-0.3-0.8C3.5,7,3.1,7.1,3,7.4c-0.7,1.4-1.1,2.9-1.1,4.5c0,5.5,4.5,10,10,10
	c0.7,0,1.5-0.1,2.2-0.3l1,1.8c0.1,0.2,0.4,0.2,0.5,0l2.7-4.4C18.3,18.8,18.2,18.5,18,18.5z M12.1,2.1c-0.7,0-1.5,0.1-2.2,0.3L9,0.6
	c-0.1-0.2-0.4-0.2-0.5,0L5.8,5C5.7,5.2,5.8,5.5,6,5.5l5.2,0.1c0.2,0,0.4-0.2,0.3-0.5l-0.9-1.6c0.5-0.1,1-0.1,1.5-0.1
	c4.8,0,8.7,3.9,8.7,8.7c0,1.4-0.3,2.7-0.9,3.9c-0.2,0.3,0,0.7,0.3,0.8c0.1,0,0.2,0.1,0.3,0.1c0.2,0,0.4-0.1,0.6-0.3
	c0.7-1.4,1.1-2.9,1.1-4.5C22.1,6.6,17.6,2.1,12.1,2.1z"/>
</svg>
