<?xml version="1.0" encoding="utf-8"?>
<!-- Generator: Adobe Illustrator 21.0.0, SVG Export Plug-In . SVG Version: 6.00 Build 0)  -->
<svg version="1.1" id="icon_1_" xmlns="http://www.w3.org/2000/svg" xmlns:xlink="http://www.w3.org/1999/xlink" x="0px" y="0px"
	 viewBox="0 0 24 24" style="enable-background:new 0 0 24 24;" xml:space="preserve">
<path d="M5.9,18.5c-0.5-0.1-1.5-0.4-2-0.7C2.4,18.2,1,18.8,0,19.6V24h3v-1.6C3.1,21,4.4,19.1,5.9,18.5z M2.5,14.1c0,2.2,1.8,4,4,4
	c0.8-0.4,1.7-0.8,2.7-1c-1.4-1-2.3-2.6-2.3-4.4c0-0.9,0.3-1.8,0.7-2.5c-0.3-0.1-0.6-0.1-1-0.1C4.3,10,2.5,11.8,2.5,14.1z M12,8
	c-2.6,0-4.7,2.1-4.7,4.7s2.1,4.7,4.7,4.7s4.7-2.1,4.7-4.7S14.6,8,12,8z M14.9,17.1c1,0.2,1.9,0.6,2.7,1c2.2,0,4-1.8,4-4
	c0-2.2-1.8-4-4-4c-0.3,0-0.6,0.1-1,0.1c0.4,0.8,0.7,1.6,0.7,2.5C17.2,14.5,16.3,16.1,14.9,17.1z M18.1,18.5c1.4,0.6,2.8,2.5,2.9,3.8
	V24h3v-4.4c-1-0.8-2.4-1.4-3.9-1.7C19.6,18.2,18.7,18.4,18.1,18.5z M14.2,17.4c-0.7,0.4-1.5,0.6-2.3,0.6c-0.8,0-1.6-0.2-2.3-0.6
	c-3.5,0.7-6.1,3-6.3,5.2c0,0,0,1.3,0,1.4h17c0.1,0,0.1-1.3,0.1-1.4C20.3,20.5,17.7,18.1,14.2,17.4z M24,5.9V4.8
	C24,2.2,21.8,0,19.2,0H4.8C2.2,0,0,2.2,0,4.8v1.1h0c0,0,0,12.5,0,13.1c0.9-0.7,1.3-0.8,1.6-1c0-0.5,0-12.1,0-12.1h0V4.8
	C1.6,3,3,1.6,4.8,1.6h14.4c1.8,0,3.2,1.4,3.2,3.2v1.1h0c0,0,0,11.6,0,12.1c0.3,0.1,0.7,0.3,1.6,1C24,18.4,24,5.9,24,5.9L24,5.9z"/>
</svg>
