<?xml version="1.0" encoding="utf-8"?>
<!-- Generator: Adobe Illustrator 21.0.0, SVG Export Plug-In . SVG Version: 6.00 Build 0)  -->
<svg version="1.1" id="icon_1_" xmlns="http://www.w3.org/2000/svg" xmlns:xlink="http://www.w3.org/1999/xlink" x="0px" y="0px"
	 viewBox="0 0 24 24" style="enable-background:new 0 0 24 24;" xml:space="preserve">
<path d="M12.3,1.8C6.7,1.8,2.1,6.3,2.1,11.9S6.7,22,12.3,22c5.5,0,10.1-4.5,10.1-10.1C22.4,6.3,17.9,1.8,12.3,1.8z M12.3,21
	c-5,0-9.1-4.1-9.1-9.1s4.1-9.1,9.1-9.1s9.1,4.1,9.1,9.1S17.3,21,12.3,21z M12,17c-0.1,0-0.1,0-0.2-0.1c0-0.1-0.1-0.1-0.1-0.2
	c0-0.5,0.4-2,1.1-4.4c0.4-1.5,0.7-2.3,0.7-2.5s-0.1-0.3-0.2-0.4c-0.1-0.1-0.3-0.1-0.5-0.1c-0.4,0-0.9,0.2-1.4,0.5s-1.2,0.9-1.9,1.6
	l0.5,0.3c0.6-0.6,1-0.9,1.2-1s0.3-0.2,0.5-0.2c0.1,0,0.2,0.1,0.2,0.2c0,0.1,0,0.2-0.1,0.4c-1,3.3-1.5,5.4-1.5,6.3
	c0,0.3,0.1,0.5,0.2,0.6s0.3,0.2,0.6,0.2s0.6-0.1,1.1-0.4s1.1-0.8,2-1.7l-0.4-0.4C12.8,16.6,12.2,17,12,17z"/>
<ellipse transform="matrix(0.2643 -0.9644 0.9644 0.2643 3.2596 18.1517)" cx="13.5" cy="6.9" rx="1.3" ry="1.1"/>
</svg>
