<?xml version="1.0" encoding="utf-8"?>
<!-- Generator: Adobe Illustrator 21.0.0, SVG Export Plug-In . SVG Version: 6.00 Build 0)  -->
<svg version="1.1" id="Calque_3" xmlns="http://www.w3.org/2000/svg" xmlns:xlink="http://www.w3.org/1999/xlink" x="0px" y="0px"
	 viewBox="0 0 24 24" style="enable-background:new 0 0 24 24;" xml:space="preserve">
<path d="M21.7,0.6h-7.4c-0.7,0-1.7,0.4-2.2,0.9L1.5,12.1C1.2,12.4,1,12.9,1,13.3c0,0.5,0.2,0.9,0.5,1.2l8,8c0.3,0.3,0.8,0.5,1.2,0.5
	c0.4,0,0.8-0.2,1.2-0.5l10.6-10.6c0.5-0.5,0.9-1.5,0.9-2.2V2.3C23.4,1.4,22.6,0.6,21.7,0.6z M17.7,8.6c-1.3,0-2.3-1-2.3-2.3
	s1-2.3,2.3-2.3S20,5,20,6.3S19,8.6,17.7,8.6z"/>
</svg>
