<?xml version="1.0" encoding="utf-8"?>
<!-- Generator: Adobe Illustrator 21.0.0, SVG Export Plug-In . SVG Version: 6.00 Build 0)  -->
<svg version="1.1" id="icon_1_" xmlns="http://www.w3.org/2000/svg" xmlns:xlink="http://www.w3.org/1999/xlink" x="0px" y="0px"
	 viewBox="0 0 24 24" style="enable-background:new 0 0 24 24;" xml:space="preserve">
<style type="text/css">
	.st0{fill:#878787;}
</style>
<path class="st0" d="M12.3,1.8C6.7,1.8,2.1,6.3,2.1,11.9C2.1,17.5,6.7,22,12.3,22c5.5,0,10.1-4.5,10.1-10.1
	C22.4,6.3,17.9,1.8,12.3,1.8z M12.3,20.3C7.7,20.3,4,16.6,4,12c0-1.9,0.7-3.7,1.8-5.2l11.7,11.7C16,19.6,14.2,20.3,12.3,20.3z
	 M18.9,17L7.3,5.4c1.4-1.1,3.2-1.7,5-1.7c4.6,0,8.3,3.8,8.3,8.3C20.6,13.9,20,15.6,18.9,17z"/>
</svg>
